<?xml version="1.0" encoding="UTF-8" standalone="no"?>
<!-- Generator: Adobe Adobe Illustrator 24.2.0, SVG Export Plug-In . SVG Version: 6.00 Build 0)  -->

<svg
   version="1.1"
   id="svg1"
   x="0px"
   y="0px"
   width="452.31317"
   height="493.50897"
   viewBox="0 0 452.31318 493.50896"
   xml:space="preserve"
   xmlns="http://www.w3.org/2000/svg"
   xmlns:svg="http://www.w3.org/2000/svg"><defs
   id="defs17" />
<style
   type="text/css"
   id="style1">
	.st0{fill:none;}
</style>
<g
   id="layer1"
   transform="translate(-70.086813,-110.49102)">
	<path
   id="path1"
   d="m 278.4,536.5 c -14.2,-0.2 -41.3,-1.2 -43.5,-1.6 -1.1,-0.2 -1.5,-0.4 -1,-0.5 0.5,0 2.9,-0.3 5.3,-0.5 2.4,-0.2 10.6,-0.8 18.2,-1.2 26.1,-1.4 21.9,-1.8 -32.8,-2.6 -37.7,-0.6 -61.5,-1.3 -62.1,-2 -0.2,-0.2 4.9,-0.9 11.4,-1.5 6.5,-0.6 11.9,-1.2 12,-1.3 0.4,-0.4 -2.6,-0.7 -14,-1.2 -19.5,-0.9 -35.8,-2.2 -36.6,-2.9 -0.8,-0.7 20,-1.8 45.3,-2.4 l 15.7,-0.3 0.9,-1.5 0.9,-1.5 -29.7,0.2 c -28.2,0.2 -53.1,-0.4 -57.2,-1.3 -1.6,-0.4 -1.5,-0.4 1.5,-0.7 8.5,-0.8 15.6,-1 49.5,-0.9 35.1,0.1 36.7,0 38.2,-0.8 1.9,-1.1 7.9,-1.7 7,-0.7 -0.4,0.5 -0.2,1 1.2,2.2 1.7,1.6 3.2,3.9 3.8,6.2 0.3,1.1 0.4,1.2 0.7,0.2 0.8,-2 5.6,-7.3 8.6,-9.4 0.9,-0.6 0.9,-0.6 0.4,0.4 -0.6,1.1 -0.4,1.6 0.8,3.1 0.7,0.8 0.9,0.7 2.8,-1.5 l 2.1,-2.3 -0.3,2.7 c -0.2,2.2 0,3.6 1.1,6.8 0.7,2.2 1.5,4.3 1.7,4.5 0.2,0.2 0.9,-1.6 1.5,-4.1 0.6,-2.5 1.6,-6.1 2.3,-8.1 0.6,-1.9 1.2,-3.6 1.2,-3.6 0,-0.1 -28.5,0 -63.3,0 -40,0.1 -66.2,0 -71.1,-0.3 -7.2,-0.5 -20.4,-2.5 -26.3,-4.1 -2.3,-0.6 -2.4,-0.7 -1,-1 1.3,-0.3 10.8,-1.3 12,-1.3 0.5,0 -1.4,-3.9 -3.3,-6.9 -3.1,-4.8 3.6,0.8 7.3,6.2 1.3,1.9 1.3,1.9 1,0.5 -0.2,-0.8 -1.4,-3.6 -2.7,-6.3 l -2.4,-4.9 2.5,2.8 c 1.4,1.5 3.4,4.2 4.4,6 1,1.8 2,3.1 2.1,3 0.1,-0.1 -0.1,-2.4 -0.6,-5.1 -0.8,-4.8 -1,-9.3 -0.5,-8.7 0.2,0.2 1.3,3.4 2.6,7.3 1.8,5.2 2.4,6.7 2.6,5.8 0.1,-0.7 0.5,-2.8 0.8,-4.7 0.6,-3.9 1.2,-4.8 1.6,-2.5 0.3,1.5 4,8.2 4.5,8.2 0.5,0 -0.2,-6.1 -1.1,-9 -0.4,-1.5 -0.7,-3.1 -0.6,-3.5 0.3,-1.3 3.1,3.4 4.2,6.8 0.5,1.5 1,2.8 1.1,2.8 0.2,0 0.4,-1.1 0.6,-2.4 0.2,-1.3 0.7,-3.2 1.2,-4.3 l 0.8,-1.9 0.1,2.2 c 0.2,2.8 1.6,9.2 2,9.5 0.4,0.2 1.9,-4.9 2.3,-7.8 0.2,-1.3 -0.1,-1.8 -2,-3.4 -1.2,-1 -2.1,-1.9 -2.1,-2 0.1,-0.1 1.3,0.3 2.8,0.8 1.4,0.5 2.6,1 2.7,1 0,0 0.2,-0.7 0.4,-1.5 0.5,-2.1 1.2,-1.8 1.2,0.5 0,1.4 0.4,2.6 1.5,4.1 0.8,1.2 2,3.3 2.6,4.7 l 1.2,2.5 0.3,-1.9 c 0.7,-4.1 1.7,-7.6 3,-10 l 1.3,-2.6 0.1,2.2 c 0.1,1.2 0.2,3.5 0.4,5.1 l 0.3,2.9 2,-1.8 c 1.1,-1 2.1,-1.8 2.1,-1.7 0.1,0.1 -0.4,1.2 -1,2.6 -1.1,2.4 -2.1,6.1 -1.6,6.1 0.1,0 2,-2.6 4.2,-5.7 2.2,-3.1 4.7,-6.5 5.6,-7.4 1.8,-1.7 2.1,-1.5 1,0.5 -1,1.8 -0.9,2.6 0.2,2.3 0.5,-0.1 1,-0.2 1,0 0,0.5 -1.1,2.4 -2,3.4 -0.9,0.9 -2.1,6.9 -1.6,7.4 0.3,0.3 5.6,-10.6 5.6,-11.4 0,-0.4 0.2,-0.7 0.5,-0.7 0.3,0 0.5,0.4 0.5,0.8 0,0.4 0.5,2.6 1,4.7 l 1,3.9 1.1,-2.9 c 1.2,-3.1 3.5,-8 3.9,-8 0.1,0 0.1,2.6 0,5.7 l -0.2,5.7 1.2,-3.8 c 1.4,-4.4 3.6,-9.2 5.4,-11.3 l 1.2,-1.5 -1.1,2.7 c -0.6,1.5 -1.4,3.8 -1.7,5.1 -0.8,3.6 -1.3,10 -0.8,10 0.2,0 1.2,-1.4 2.1,-3 1.7,-2.9 6.2,-8.4 6.7,-8 0.1,0.1 -0.2,1.1 -0.7,2.1 -0.5,1 -1.2,2.7 -1.5,3.7 l -0.5,1.8 h 6 6 V 494 c 0,-3.7 -0.1,-4.4 -0.8,-4.4 -1.6,0 -4.1,-1.6 -4.4,-2.7 -0.2,-0.9 0.2,-1.8 1.9,-4 1.2,-1.6 2.2,-3 2.2,-3.1 0,-0.2 -7.2,-0.3 -15.9,-0.3 -9,0 -20.6,-0.3 -26.6,-0.8 -5.9,-0.4 -19,-0.9 -29.2,-1 -10.2,-0.1 -18.7,-0.5 -18.9,-0.7 -0.2,-0.2 10.5,-0.4 23.9,-0.3 13.4,0 24.5,-0.1 24.7,-0.3 0.5,-0.5 0.5,-7.4 0,-7.9 -0.2,-0.2 -2.7,-0.5 -5.6,-0.5 -20.7,-0.5 -55.7,-2.6 -56.6,-3.5 -0.2,-0.2 1.9,-0.9 4.6,-1.5 9.5,-2.1 15.2,-3.5 16,-4 0.6,-0.3 1,-0.2 1.4,0.5 0.7,1.4 1.5,0.8 1.5,-1.2 0,-2.5 1.4,-6.2 2.7,-7.4 0.7,-0.6 1.2,-1.3 1.2,-1.6 0,-0.6 4.7,-2.9 6,-2.9 0.5,0 1.6,-0.4 2.4,-0.8 1.1,-0.6 1.3,-0.9 0.8,-1.2 -1.3,-0.8 -5.7,-1.1 -7.5,-0.5 -4.1,1.4 -7.4,6.1 -7.9,11.4 -0.3,2.9 -0.3,2.9 -0.9,1.5 -0.3,-0.8 -0.6,-3 -0.6,-5 0,-3.3 -0.1,-3.5 -1.1,-3.5 -1.6,0 -4.1,-1.7 -5,-3.5 -1.5,-2.9 0,-7.2 2.5,-7.2 0.6,0 1.5,-0.5 2,-1 0.8,-0.9 1.3,-1 4.6,-0.7 4.3,0.4 4.8,0 3.5,-2.3 -0.6,-1.1 -1.6,-1.8 -3.1,-2.3 -1.2,-0.4 -2.3,-0.9 -2.5,-1.2 -1.3,-1.7 0.6,-7.9 2.8,-9.3 1,-0.6 1,-0.6 0.4,1.6 -0.3,1.3 -0.5,2.7 -0.4,3.1 0.3,1.2 2.2,1.6 2.8,0.6 1.1,-1.9 2.6,-3 4.5,-3.3 2.2,-0.4 2.4,-0.6 1.3,-2.7 -0.8,-1.6 -1.6,-2 -4.3,-2 -2.3,0 -2.7,-0.2 -3.9,-1.9 -1.5,-2.2 -0.8,-6.5 1.4,-8.3 0.7,-0.6 0.8,-0.5 0.5,1.1 -0.5,2.4 0.1,3.8 1.4,3.8 0.8,0 1.3,-0.4 1.7,-1.5 0.8,-2 2.7,-3.4 4.7,-3.4 1.2,0 1.6,-0.2 1.3,-0.7 -0.5,-1.4 4.2,-0.2 5.2,1.3 0.3,0.5 4.8,0.8 4.8,0.4 0,-0.9 -2.2,-3.5 -3.5,-4.2 -1.9,-1 -10.2,-1.2 -11.9,-0.2 -0.6,0.3 -1.1,0.4 -1.1,0.1 0,-0.6 2.8,-3 3.4,-3 0.2,0 0.4,-0.9 0.4,-2 0,-1.7 0.3,-2.3 1.8,-3.8 1.6,-1.6 1.8,-2 1.4,-3.1 -1,-2.9 1,-6.8 4.2,-8.1 0.9,-0.3 2.2,-1.2 2.9,-1.8 2.5,-2.3 7.3,-2.8 10.5,-1.1 0.6,0.3 1.2,0.5 1.3,0.4 0.4,-0.4 2.3,-31.5 2,-31.8 -0.1,-0.1 -1.1,0.2 -2.1,0.8 -2.4,1.2 -4.1,3.4 -7.4,9.3 -3.3,6 -10,15.8 -13.9,20.5 -3.3,4 -10.3,10.8 -12,11.7 -1.2,0.7 -1.4,0.8 4.2,-5.6 6.8,-7.7 13.8,-17.8 19.8,-28.3 4.2,-7.3 6.4,-10 9.5,-11.2 l 2.2,-0.8 v -7.7 -7.7 l -3.3,1.1 c -3.5,1.2 -3.9,1.7 -4,4.9 0,2.4 -1.5,4.1 -2.8,3.3 -0.9,-0.6 -1.6,0.1 -5,5.2 -5.8,8.7 -14.4,18.2 -20.7,22.9 -0.9,0.7 -0.9,0.7 -0.2,-0.3 0.4,-0.5 1.7,-2.1 3,-3.4 7.8,-8.4 20.3,-25.7 21.3,-29.4 0.7,-2.7 2.3,-4 6.6,-5.5 5.5,-1.9 5.6,-2.1 5.6,-6.9 V 319 h -1.6 c -0.9,0 -2.6,0.1 -3.8,0.3 -1.8,0.2 -2.3,0.5 -2.7,1.7 -0.6,1.6 -1.9,2.3 -3,1.5 -0.7,-0.4 -1.8,0.5 -7.3,6.2 -6,6.3 -16.6,16 -17.6,16 -0.2,0 2.8,-3.2 6.8,-7.2 8.3,-8.3 16.6,-17.8 16.6,-19.2 0,-1.8 0.9,-2.8 2.6,-2.8 0.9,0 1.8,0.2 2.1,0.5 0.3,0.3 1.7,0.5 3.6,0.3 2.6,-0.2 3.2,-0.4 4.2,-1.6 1,-1.2 1.1,-2.1 1.3,-6 0.1,-4.4 0.2,-4.6 1.2,-4.8 1.1,-0.2 1.1,0 1.1,4.3 0,2.7 0.3,5.1 0.7,6.1 0.8,1.9 1.7,2.2 8.5,2.6 4.1,0.3 4.6,0.4 4.8,1.3 0.3,2 10.7,7.8 16,8.9 1.4,0.3 4.8,0.5 7.4,0.5 4.5,0 6,0.4 4,1.2 -0.5,0.2 -2.9,0.5 -5.3,0.6 -6.4,0.4 -10.3,-0.7 -18.8,-5.3 -2.4,-1.3 -4.8,-2.3 -5.5,-2.3 -0.8,0 -1.4,-0.4 -1.8,-1.2 -0.5,-1.1 -0.8,-1.2 -3.3,-1.2 -1.5,0 -3.5,-0.1 -4.3,-0.3 l -1.5,-0.3 v 4.3 c 0,2.4 0.2,4.6 0.4,4.9 0.4,0.7 5.3,1.6 8.5,1.6 2.1,0 2.4,0.1 2.8,1.2 0.3,0.7 0.8,1.2 1.2,1.2 0.4,0 1,0.6 1.4,1.4 0.8,1.6 5,4.6 9.3,6.8 2.9,1.5 10.9,4 11.5,3.7 0.2,-0.1 0,-1.9 -0.4,-4 -1.2,-6.2 -1.3,-5.9 2.5,-7.2 4.6,-1.6 6.6,-1.5 8.1,0.2 2,2.2 2.3,3 1.8,6.7 -0.4,3.2 -0.4,3.4 0.8,4.5 0.7,0.6 2.1,2.4 3.1,3.9 5.4,7.9 14,15.7 17.4,15.7 2.1,0 9.9,-2.8 12.9,-4.6 5.8,-3.5 4.4,-4.3 -2.5,-1.4 -2.3,0.9 -4.6,1.9 -5.1,2 -0.9,0.3 -0.9,0.2 -0.3,-0.6 0.4,-0.5 2.1,-1.9 3.9,-3.1 3.4,-2.4 6.3,-4.9 6.3,-5.5 0,-0.2 -0.8,0 -1.7,0.3 -3.1,1.3 -6,0.7 -5.5,-1.1 0.2,-0.9 -0.1,-1 -3.9,-1.2 -4.6,-0.3 -8.3,-1.5 -13,-4.3 -3,-1.8 -8.9,-7.4 -8.9,-8.3 0,-0.3 -0.7,-1.5 -1.6,-2.5 -1.3,-1.6 -1.6,-2.4 -1.8,-5 l -0.2,-3.1 h -1.9 c -2.5,0 -2.5,-1.1 0.1,-2.1 l 1.9,-0.8 v -3.9 -3.9 h -1.9 c -1.2,0 -2,0.3 -2.2,0.7 -0.2,0.4 -0.7,0.7 -1.2,0.7 -0.5,0 -3.3,1.2 -6.1,2.7 -4.9,2.6 -6.6,3.1 -6.6,2.3 0,-0.2 1.8,-1.5 4,-2.9 3.9,-2.4 5.6,-3.8 6.9,-5.6 0.6,-0.8 0.8,-0.9 3.1,-0.3 3.6,0.9 4,0.6 4,-2.9 v -2.9 l -3.8,-0.1 c -3.5,-0.1 -3.8,-0.2 -3.9,-1.3 -0.2,-1.8 0.5,-2.1 3,-1.5 1.3,0.3 2.8,0.4 3.5,0.2 1.1,-0.3 1.2,-0.5 1.2,-3.3 0,-4.7 0.4,-6.2 1.6,-6 0.9,0.1 1,0.5 1.2,4.6 0.2,5.2 0.3,5.3 5,4.8 2.6,-0.3 2.9,-0.3 3.2,0.7 0.4,1.3 5.2,4.5 8.9,5.9 1.5,0.6 5.2,1.6 8.1,2.2 2.9,0.7 5.4,1.3 5.5,1.4 0.1,0.1 -1.2,0.2 -2.9,0.2 -5.3,0 -9.4,-1.2 -16.5,-4.6 -4.9,-2.4 -7.1,-3.2 -8.8,-3.3 l -2.2,-0.1 v 3 c 0,1.7 0.2,3.2 0.3,3.3 0.2,0.2 1.7,0.4 3.3,0.4 2.9,0.1 3,0.1 4.3,2 2.8,4.2 10.5,9 17.1,10.8 4,1.1 4.6,1.6 1.8,1.6 -2.7,0 -6.6,-1.1 -10.2,-2.9 -2.4,-1.2 -10.1,-6.5 -12.3,-8.5 -0.5,-0.4 -1.8,-0.9 -2.8,-1.1 l -1.9,-0.3 v 2.7 c 0,4.7 0.3,5.5 2.7,6.4 1.3,0.5 3.3,2 5.4,4.2 4.1,4.2 7.9,7 12.9,9.5 5.9,2.9 4.7,3.7 -1.6,1 -4.7,-2 -7.6,-4.1 -12.2,-8.4 -2,-1.9 -4.4,-3.8 -5.2,-4.3 l -1.5,-0.8 -0.3,2.2 c -0.2,1.2 -0.2,3.4 0,4.9 0.3,2.3 0.6,3 2.4,4.7 6.8,6.5 13.5,9.9 22,11.1 l 3.4,0.5 2.6,-1.8 c 1.4,-1 2.5,-1.8 2.4,-1.9 -0.1,-0.1 -1.2,0.2 -2.5,0.6 -4.5,1.4 -4.9,0.7 -1,-1.9 3.7,-2.4 6,-4.6 6.9,-6.3 0.7,-1.4 0.7,-1.5 -0.4,-1.1 -2.7,0.8 -4.6,0.8 -6.5,-0.1 l -1.9,-0.9 2.6,-1.5 c 1.5,-0.8 3.2,-2 3.8,-2.7 l 1.1,-1.2 -2.2,0.3 c -1.2,0.1 -2.2,0.1 -2.2,-0.1 0,-0.2 1.5,-2.2 3.4,-4.5 4.7,-5.8 4.8,-6.1 4.8,-11.8 0,-5.2 0.2,-6.4 1.2,-6.4 1,0 1.2,1.2 1.2,6.4 0,3.5 0.2,5.3 0.8,6.4 0.7,1.5 4.7,6.6 7,9 1.1,1.2 1.1,1.3 -2.4,1.1 l -1.7,-0.1 1.7,1.5 c 0.9,0.8 2.8,2 4.1,2.6 l 2.4,1.2 -1.9,0.8 c -1.9,0.8 -4.7,0.8 -6.7,0 -2.6,-1.1 1.4,3.8 6.2,7.5 3.6,2.8 2.6,3.2 -2.9,1.3 -1.3,-0.5 1.2,1.7 4.3,3.7 1.3,0.8 2.3,1.8 2.3,2.1 0,0.3 -0.7,0.9 -1.5,1.2 -1.2,0.5 -1.8,0.5 -3.8,-0.3 -1.3,-0.5 -2.5,-1 -2.8,-1.1 -0.3,-0.1 1.9,2.1 4.9,4.9 2.9,2.8 5.2,5.2 5,5.4 -0.2,0.2 -1.6,-0.5 -3.1,-1.5 -2.9,-1.9 -6.6,-3.4 -7.6,-3 -1.4,0.5 11.1,8.4 16,10.2 0.9,0.3 1.6,0.7 1.6,0.9 0,0.6 -6.5,1.9 -9.6,1.9 l -2.8,0.1 2.2,0.5 c 1.2,0.3 4.4,1 7,1.6 2.7,0.6 4.9,1.1 5,1 0.1,-0.1 1.1,-2.9 2.3,-6.2 l 2.1,-6 -3.5,-1.7 c -3.8,-1.9 -6.8,-4.1 -8.8,-6.6 -1.8,-2.2 -1,-2 2.9,0.9 3.7,2.7 9.2,5.5 9.9,5.1 0.5,-0.3 7.9,-22.4 13.7,-40.6 1.6,-5.2 3.1,-9.7 3.2,-10.1 0.1,-0.4 -0.8,-1.1 -2.5,-1.9 -2.9,-1.4 -4,-3 -3.2,-4.5 0.2,-0.5 0.6,-2.1 0.7,-3.7 0.4,-3.5 0.6,-3.8 1.8,-3.2 0.7,0.4 0.9,1 0.9,2.6 v 2.1 l 2.1,-0.5 c 1.1,-0.3 2.1,-0.6 2.2,-0.6 0.3,-0.2 2.4,-8.8 3.9,-16 2.7,-12.6 6.8,-36.3 8,-46.4 0.1,-1.2 1,-7.7 1.9,-14.3 0.9,-6.7 1.8,-13.8 2,-15.9 0.3,-3.7 0.3,-3.7 -0.9,-4 -3.1,-0.8 -5.3,-4.2 -3.5,-5.6 0.4,-0.3 0.8,-1.5 0.9,-2.6 0.2,-2.7 1.5,-2.8 1.8,-0.2 0.1,1.7 0.3,1.8 1.5,1.7 1.1,-0.1 1.3,-0.4 1.5,-1.7 0.1,-1.1 0.5,-1.7 1.4,-2.1 1.1,-0.5 1.2,-0.8 1.1,-3.1 -0.1,-2.4 -0.2,-2.6 -2.1,-3.5 -2.4,-1.1 -2.7,-1.5 -2.7,-3.8 0,-2 1.1,-3 3.8,-3.6 1.5,-0.3 1.6,-0.3 1.6,-3.3 0,-1.6 0,-4.3 0,-6 -0.1,-2.7 0,-3.1 1.5,-4.8 1,-1.2 2.3,-2 3.7,-2.4 1.9,-0.5 2.2,-0.8 2.4,-2.2 0.2,-0.9 0.2,-8.8 0.1,-17.5 -0.1,-8.7 -0.2,-16.1 0,-16.4 0.1,-0.3 0.8,-0.6 1.4,-0.6 h 1.2 l 0.1,14.7 c 0,8.1 0.2,16.2 0.4,18.1 l 0.3,3.4 2,0.7 c 1.1,0.4 2.7,1.4 3.6,2.4 1.4,1.6 1.5,1.9 1.3,4.7 -0.4,4.2 0.1,9 0.9,9 1.4,0 4.1,1.7 4.4,2.7 0.6,2.3 0,3.3 -2.4,4.5 l -2.3,1.1 v 2.5 c 0,2.7 0.3,3.4 1.5,3.8 0.4,0.2 0.9,0.9 1,1.7 0.1,1.1 0.4,1.4 1.5,1.5 1.3,0.1 1.3,0 1.3,-1.9 0,-1.7 0.2,-2 0.9,-1.8 0.6,0.1 1,0.8 1.2,2.1 0.2,1.1 0.6,2.7 1,3.6 0.6,1.5 0.6,1.7 -0.6,2.7 -0.7,0.6 -2,1.4 -2.9,1.9 l -1.6,0.9 0.3,4.1 c 0.4,5.7 5.8,43.5 7.9,55.6 2.1,12.4 7,35 7.7,35.8 0.3,0.3 1.3,0.7 2.3,0.9 l 1.8,0.3 0.2,-2.4 c 0.1,-2 0.3,-2.4 1.1,-2.4 0.8,0 1,0.4 1.2,2.7 0.1,1.5 0.6,3.3 1.1,4 1.4,2 0.9,2.9 -2.5,4.5 -1.7,0.8 -3,1.8 -3,2.2 0,1.4 10.2,35.1 11.2,37 0.4,0.7 0.8,0.7 4.7,-0.1 5.8,-1.3 10.2,-2.6 15.4,-4.7 5.1,-2 6.9,-3.2 7.6,-4.9 0.4,-1 0.7,-1.2 1.9,-0.9 0.8,0.2 2.1,0.4 2.9,0.6 0.8,0.2 2,0.2 2.7,0 1.2,-0.3 1.2,-0.4 1.2,-5.4 v -5.1 l 1.6,0.2 1.6,0.2 0.1,4.8 c 0.1,3.1 0.3,5 0.7,5.2 1,0.7 4.6,0.4 5.2,-0.3 0.7,-0.8 2.3,-0.9 3.3,-0.3 0.4,0.3 0.6,1.2 0.5,2.8 -0.1,2.3 -0.2,2.4 -1.7,2.5 -1.2,0.1 -1.6,-0.1 -1.9,-0.9 -0.3,-0.9 -0.7,-1 -3.2,-1 h -2.9 v 3.5 c 0,5.4 0.1,5.6 3,5.8 1.4,0.1 3,-0.1 3.8,-0.5 1.7,-0.8 2.7,-0.5 3.4,1.3 0.3,0.7 1.6,2.6 2.8,4.2 2.2,2.9 2.1,3 -0.8,0.9 -0.9,-0.6 -2,-1.1 -2.6,-1.1 -0.6,0 -1.4,-0.4 -1.9,-0.9 -0.7,-0.7 -1.8,-1 -4.1,-1.1 l -3.2,-0.2 -0.1,6.6 -0.1,6.6 -1.3,-2.5 c -0.7,-1.4 -1.6,-2.7 -2.1,-3.1 -0.6,-0.5 -0.8,-1.5 -0.8,-4 0,-1.8 -0.1,-3.3 -0.2,-3.3 -0.1,0 -2.5,0.8 -5.3,1.7 -2.8,0.9 -5.5,1.7 -6.1,1.7 -2,0 -1,-1.4 1.8,-2.4 1.5,-0.6 4.4,-1.7 6.3,-2.5 l 3.5,-1.5 v -4.6 -4.6 h -1.8 c -2.1,0 -2.7,0.3 -3.2,1.6 -0.3,0.9 -2.5,1.2 -3,0.4 -0.2,-0.3 -1.4,0.1 -3.1,0.9 -3.6,1.8 -11.6,4.3 -18.3,5.6 -3.6,0.7 -5.4,1.3 -5.5,1.8 -0.1,0.4 0.8,3.6 2,7.2 1.5,4.6 2.3,6.5 2.8,6.5 3.8,-0.4 4.3,-0.7 4.3,-2.1 0,-3.1 -0.6,-5.9 -1.3,-5.9 -0.5,0 -0.7,-0.7 -0.5,-3 l 0.1,-3 3.9,-0.2 c 4.2,-0.2 9.5,0.6 10.1,1.5 0.2,0.3 0.4,1.6 0.4,2.8 0,1.6 -0.3,2.5 -1,3.1 -0.7,0.6 -1,1.5 -1,3.1 v 2.2 l 2.9,-0.3 c 1.6,-0.1 2.9,-0.1 2.9,0.1 0,0.2 -0.9,1.7 -2,3.3 -2.4,3.5 -2.1,4.6 0.5,1.7 5.2,-5.9 6.5,-7.2 6.8,-6.6 0.1,0.3 -2,3.5 -4.7,7 -2.7,3.5 -9,11.9 -14.1,18.6 -12.9,17.2 -13.2,17.7 -11.3,17.7 0.7,0 4.3,-4.4 12.4,-15.2 15.3,-20.4 19.2,-25.4 19.7,-25.6 0.2,-0.1 2.9,3.1 5.9,7 3,3.9 8.5,10.9 12.1,15.5 3.6,4.6 8.9,11.4 11.9,15.1 2.9,3.7 5.5,7.1 5.8,7.4 0.5,0.6 -0.3,0.6 -4.8,0.3 -16,-1 -56.7,-2.2 -56.1,-1.6 0.1,0.1 2.3,1.7 4.9,3.4 2.5,1.7 8.1,5.5 12.4,8.4 l 7.8,5.3 4.6,0.1 c 12.3,0.3 74.4,0.3 74.4,0 0,-0.5 -4.9,-2.9 -11,-5.4 -2.9,-1.2 -6.3,-2.6 -7.5,-3.1 -9,-4.1 -15.1,-6.4 -17.1,-6.4 -2.7,0 -2.3,0.4 -12.6,-12.9 -4.3,-5.6 -8.2,-10.6 -8.6,-11 -0.6,-0.7 -0.3,-1 2.5,-2.6 1.7,-1 3.9,-2.5 4.8,-3.2 1.4,-1.2 1.5,-1.4 0.6,-1.4 -0.6,0 -3.1,1 -5.5,2.2 -3.6,1.8 -4.6,2.1 -4.9,1.6 -0.2,-0.4 -0.4,-0.8 -0.4,-0.9 0,-0.1 1.9,-1.5 4.3,-3 6.2,-4 8.7,-7 4,-4.7 -2.5,1.2 -5.1,0.9 -4.8,-0.5 0.1,-0.5 1.7,-2.1 3.5,-3.6 1.8,-1.5 3.2,-2.7 3.1,-2.7 -0.1,0 -1.3,0.4 -2.6,1 -1.3,0.5 -2.9,0.9 -3.6,0.9 -1.1,-0.1 -0.8,-0.5 2.9,-3.3 3.8,-2.9 7.1,-6.2 6.6,-6.7 -0.1,-0.1 -1.1,0 -2.2,0.3 -1.6,0.4 -2.5,0.4 -4.7,-0.2 -1.5,-0.4 -2.6,-0.9 -2.6,-1.1 0,-0.2 1,-0.7 2.3,-1.2 1.3,-0.5 3.1,-1.5 4,-2.3 l 1.7,-1.5 h -2.1 c -1.1,0 -2.1,-0.1 -2.1,-0.3 0,-0.1 1.8,-2.5 4,-5.2 l 4,-4.9 0.2,-6.6 c 0.2,-5.6 0.4,-6.6 1,-6.8 0.7,-0.1 0.8,0.6 1,5.8 0.2,6.9 0.4,7.3 4.8,12.5 5.1,6 4.9,5.5 2.2,5.3 -1.3,-0.1 -2.3,0 -2.3,0.2 0,0.6 5,3.7 6.4,4 0.7,0.2 1.3,0.5 1.3,0.7 0,0.4 -2,1.3 -3.9,1.7 -0.7,0.2 -2.3,0 -3.5,-0.4 -1.3,-0.4 -2.3,-0.6 -2.3,-0.4 0,0.8 2.9,3.9 6.6,6.7 4.7,3.8 4.8,4.8 0.3,3 -1.6,-0.7 -3,-1.1 -3,-1.1 0,0 1.6,1.4 3.4,3 3.1,2.6 3.4,2.9 2.6,3.5 -1.2,0.9 -4.2,0.8 -5.3,-0.1 -1.3,-1 -1.8,-0.9 -1.2,0.2 0.3,0.5 1.9,1.9 3.5,3.1 3.4,2.4 7.2,6.2 6.3,6.2 -0.3,0 -1.6,-0.6 -2.9,-1.4 -2.5,-1.5 -7.9,-3.6 -8.2,-3.3 -1,1 10.5,7.5 15.8,9.1 1.1,0.3 1.9,0.8 1.7,1 -1.1,1.1 -6.4,2.4 -9.8,2.4 h -3.7 l 1.8,1.6 c 1,0.9 3.8,2.8 6.3,4.2 2.7,1.6 4.2,2.7 3.7,2.8 -0.4,0.1 -2.9,-0.4 -5.4,-1.1 -5.7,-1.5 -6.3,-1.5 -4.6,0 3.3,2.9 14.1,8.5 16.4,8.5 1.7,0 6.9,-2.4 9.5,-4.3 l 2.4,-1.8 -3.6,-0.3 c -2.5,-0.2 -4.6,-0.7 -6.7,-1.7 -1.7,-0.8 -2.9,-1.5 -2.8,-1.6 0.1,-0.1 2.4,-1 5.1,-1.9 6,-2 9.8,-3.8 11,-5.1 l 0.9,-1 -1.9,0.3 c -1.6,0.3 -4.4,1.3 -10,3.5 -1.7,0.7 2,-2.6 5.6,-5 4,-2.6 6.4,-4.7 4.4,-3.9 -3.2,1.3 -4.6,1.4 -5.6,0.5 -0.5,-0.5 -1,-1.1 -1,-1.2 0,-0.2 1.4,-1.3 3.1,-2.4 3.6,-2.3 4.4,-3.2 2.1,-2.3 -2.4,1 -4.8,1.4 -4.8,0.9 0,-0.3 1.8,-1.7 3.9,-3.3 3.4,-2.4 6.3,-5.7 5.7,-6.3 -0.1,-0.1 -1.1,0.1 -2.2,0.5 -2,0.7 -4.4,0.5 -6.3,-0.6 -0.8,-0.4 -0.5,-0.7 2,-2 1.6,-0.8 3.5,-2 4.2,-2.6 l 1.4,-1.1 -2.5,0.2 -2.5,0.2 3.5,-4.3 c 4.4,-5.5 4.9,-6.4 5.3,-10.5 0.4,-4.5 1.3,-4.7 1.7,-0.5 0.4,4.2 1.7,6.7 5.7,11.1 1.8,2 3.2,3.7 3,3.8 -0.1,0.1 -1.2,0.1 -2.3,0 l -2,-0.3 1.4,1.5 c 0.8,0.8 2.5,2 3.8,2.6 1.3,0.6 2.3,1.2 2.3,1.4 0,0.5 -3.5,1.4 -5.3,1.4 -0.8,0 -2.1,-0.2 -2.7,-0.5 -0.8,-0.3 -1.2,-0.3 -1.2,0 0,0.9 3.5,4.3 6.6,6.6 2.9,2.1 3.8,3.1 2.6,3.1 -0.9,0 -4.5,-1.1 -5.2,-1.6 -0.3,-0.3 -0.6,-0.3 -0.6,-0.2 0,0.1 1.5,1.4 3.4,2.8 2.3,1.7 3.3,2.7 3.1,3.2 -0.4,1.2 -2.6,1.4 -4.9,0.6 l -2.1,-0.8 1.4,1.4 c 0.8,0.8 2.5,2.1 3.8,2.8 1.3,0.8 3.3,2.3 4.3,3.3 l 1.9,2 -4.3,-1.9 c -2.4,-1 -5.2,-2 -6.3,-2.2 l -1.9,-0.3 1.7,1.5 c 1.7,1.5 8,4.3 12.5,5.7 2.5,0.7 2.6,0.8 1.7,1.5 -1.9,1.3 -6.6,2.6 -9.4,2.7 h -2.8 l 1.4,1.1 c 4.9,4 12.1,7.1 15.5,6.7 3.8,-0.5 8.1,1.9 9.5,5.1 0.4,0.9 1.2,1.7 2.4,2.2 3.8,1.5 5.8,5.6 4.8,10 -0.3,1.4 -0.5,2.6 -0.4,2.6 0.1,0.1 1.1,0.7 2.2,1.4 3,1.9 4.2,4.6 4.3,9.1 0,3.1 -0.2,4 -1.3,6 -0.7,1.3 -1.9,2.7 -2.5,3.1 -1,0.6 -1.1,1 -0.7,2 0.8,2.2 0.5,5.7 -0.6,7.5 -2.7,3.9 -7.9,4.9 -12.8,2.4 -1.6,-0.8 -2.9,-1.5 -3,-1.5 -0.3,0 -0.1,5.8 0.2,6 0.2,0.1 3.9,0.5 8.1,0.8 4.3,0.3 9.6,0.7 11.9,0.9 l 4.1,0.3 -3.6,0.4 c -2,0.2 -13.4,0.5 -25.3,0.6 -24.6,0.3 -25.8,0.4 -25.8,1.7 0,1.5 -0.3,1.4 27.2,3.2 19.8,1.3 27.7,1.9 28.1,2.4 0.1,0.1 -0.8,0.3 -2.1,0.3 -1.3,0 -7,0.2 -12.6,0.5 -5.6,0.3 -20.3,0.5 -32.7,0.6 -12.4,0.1 -22.6,0.3 -22.7,0.4 -0.4,0.4 0.6,6.3 1.1,6.8 0.2,0.2 4.4,1 9.3,1.9 4.9,0.8 9.1,1.7 9.4,1.9 0.6,0.6 -3.5,1.4 -12.5,2.5 -17,2.1 -35.7,2.4 -48.2,1 -2.4,-0.3 -8.9,-0.6 -14.3,-0.6 l -9.9,-0.1 0.1,1.6 0.1,1.6 h -2.9 -2.9 v -1.7 -1.7 h -9.4 c -5.1,0 -10.2,0.1 -11.2,0.3 l -1.8,0.3 0.1,2.7 0.1,2.7 2.4,0.3 c 4.3,0.5 1.3,0.9 -8.8,1.1 -5.3,0.1 -16.9,0.5 -25.8,0.8 -19,0.7 -47.6,0.3 -59.3,-0.7 -4.5,-0.4 -8.8,-0.8 -9.5,-0.8 -0.9,-0.1 -0.8,-0.1 0.5,-0.4 1.6,-0.3 1.7,-0.4 1.8,-2.1 0,-1 -0.1,-2.4 -0.2,-3 l -0.2,-1.2 h -8.6 -8.6 l -0.5,1.2 c -0.5,1.2 -2.1,1.9 -5.6,2.5 l -1.8,0.3 0.1,3.7 0.1,3.7 7.9,0.5 c 4.3,0.3 8,0.6 8.2,0.8 0.4,0.4 -6.4,1.8 -11.9,2.3 -2.8,0.3 -14.6,0.8 -26.3,1.2 -11.6,0.4 -23.8,0.9 -27,1.1 l -5.8,0.4 4.4,0.3 c 2.4,0.2 16.9,0.5 32.2,0.7 l 27.8,0.4 0.8,-1.4 0.8,-1.4 v 1.2 1.2 l 5.2,-0.1 c 3.7,-0.1 5.3,-0.3 5.6,-0.7 3.7,-6.3 5.1,-7.8 3.3,-3.8 -1.9,4.3 -1.9,4.3 0.5,4.3 1.2,0 2.4,-0.3 2.7,-0.6 0.5,-0.5 0.6,-0.5 0.6,0 0,0.4 3.3,0.6 13.5,0.6 12.1,0 23.2,0.4 22.8,0.8 -0.3,0.3 -15.9,1.7 -16.3,1.5 -0.2,-0.1 -1.3,0.5 -2.3,1.4 l -1.9,1.6 4,4.1 c 2.2,2.3 4.3,4.9 4.8,5.7 l 0.8,1.6 0.8,-2.2 c 0.5,-1.2 1.9,-3.7 3.1,-5.6 l 2.3,-3.4 -0.3,5 -0.3,5 1.1,-0.1 c 1.1,-0.1 1.2,0.1 1.4,2.9 0.3,3.5 0.7,4.3 1.2,2.2 1.4,-6.9 4,-14.2 6,-16.9 l 0.7,-1 -0.3,1 c -0.3,1 -1.4,9.1 -2,13.9 l -0.3,2.7 2.2,-3.7 c 2.4,-4.1 6.1,-8.9 8.9,-11.6 1.4,-1.3 1.7,-1.4 1.2,-0.6 -0.5,1 -0.3,1.5 1.2,4.4 1,1.8 2.7,5 3.9,7.1 l 2.1,3.9 0.3,-1.9 c 0.7,-4 1.9,-7.9 3.6,-11.7 1.8,-3.9 3.3,-6 2.4,-3.2 -0.6,1.8 -1.5,8.4 -1.5,11.2 v 2.2 l 1.1,-1.1 c 0.6,-0.6 1.3,-1.1 1.5,-1.1 0.2,0 0.3,2.1 0.3,4.6 0,3 0.2,4.5 0.5,4.3 0.3,-0.2 0.5,-0.8 0.5,-1.4 0,-2.5 5.4,-16.4 6.1,-15.7 0.1,0.1 -0.1,1.3 -0.5,2.6 -0.8,3.1 -2.8,16.8 -2.5,17.1 0.1,0.1 1.1,-1.6 2.1,-3.8 1,-2.2 3.4,-6.2 5.2,-8.9 2.3,-3.5 3.2,-5.1 3.1,-6 -0.3,-1.3 0.1,-1.4 1.4,-0.4 1.4,1 1.5,0.9 2.2,-1 0.9,-2.4 1.5,-2.1 1.2,0.6 -0.2,1.9 0,3.1 1.1,6.2 0.8,2.1 1.7,5 2,6.5 0.3,1.4 0.7,2.5 0.8,2.4 0.1,-0.1 0.5,-2.6 0.9,-5.5 0.4,-2.9 1.2,-7.7 1.7,-10.7 0.5,-3 1,-5.5 1,-5.7 0,-0.2 0.2,-0.3 0.5,-0.1 0.3,0.2 0.5,3 0.5,6.7 0.1,9.9 0.6,16.5 1.2,16.7 0.4,0.1 1.2,-1.9 2.3,-5.3 1.6,-5.3 4.1,-11.4 4.1,-10.3 0,0.3 -0.3,3.4 -0.7,7 -0.8,7 -0.7,8.7 0.3,5.7 1.3,-3.9 7,-13.8 7.6,-13.2 0.1,0.1 -0.3,1.3 -0.8,2.6 -1,2.3 -2.9,9.5 -2.9,10.9 0,0.4 0.8,-0.7 1.8,-2.4 1.8,-3.3 5.6,-8.2 7.5,-10 l 1.1,-1 -1,2 c -0.6,1.1 -1,2.1 -1,2.3 0,1 7.5,1.1 54,0.7 48,-0.4 65.8,-0.2 63.4,0.6 -3.2,1.2 -55.1,3.2 -88,3.5 -12.9,0.1 -14.1,0.2 -14.9,1 -0.5,0.5 -0.9,1.1 -0.9,1.3 0,0.2 15.4,0.6 34.1,0.7 35,0.3 48.8,0.7 48.1,1.3 -0.2,0.2 -3.3,0.6 -6.9,0.9 -6.6,0.6 -12,0.9 -36.2,2.3 -27.4,1.6 -42.4,2.8 -43.2,3.6 -0.4,0.4 2,0.5 30.5,1.5 8.8,0.3 16.9,0.7 18,0.9 2.6,0.5 -10.5,1.4 -28.9,2 -13.7,0.5 -95.6,1.5 -105.5,1.3 -1.8,0.5 -8.4,0.4 -13.6,0.4 z m 60,-18.7 c -0.4,-1.4 -1,-2.3 -1.2,-2.1 -0.8,1 -2.9,9.1 -3,11.3 0,0.9 0.6,0.2 2.5,-2.8 l 2.5,-4 z m -80.2,-1.4 c 1.6,-2.2 5.2,-5.5 7.1,-6.6 0.6,-0.3 0.6,-0.3 0,0.5 -1.4,1.7 -3.2,5.2 -4,7.7 -1.6,5.3 -1.5,5.5 1.1,1.5 1.4,-2.1 4.5,-5.9 6.9,-8.4 l 4.4,-4.5 -5.8,0.3 c -3.2,0.1 -7.4,0.4 -9.2,0.5 l -3.4,0.3 -1.1,7.6 c -1.4,10.2 -1.4,10.6 0.6,6.7 0.9,-1.8 2.5,-4.3 3.4,-5.6 z m 17.8,8.3 c 0,-0.3 -0.2,-0.5 -0.5,-0.5 -0.3,0 -0.5,0.2 -0.5,0.5 0,0.3 0.2,0.5 0.5,0.5 0.2,-0.1 0.5,-0.3 0.5,-0.5 z m -37.7,-5.4 c 1.3,-2.7 2.5,-4.9 2.7,-4.9 0.2,0 0.8,1 1.5,2.2 0.7,1.2 1.3,2.2 1.5,2.2 0.1,0 0.6,-1.2 0.9,-2.8 0.4,-1.5 1.2,-4 1.8,-5.4 0.6,-1.5 1.1,-2.8 1,-2.9 -0.1,-0.1 -2.5,0 -5.3,0.1 -5.9,0.4 -5.2,-0.3 -6.1,6.8 -0.9,7.5 -1.1,10.1 -0.7,9.8 0.1,0 1.3,-2.4 2.7,-5.1 z m -19.9,2.4 c 1.5,-2.6 1.9,-2.9 2.9,-1.6 0.6,0.7 0.6,0.7 0.7,0.1 0,-1.5 -1.5,-5.9 -1.9,-5.5 -0.2,0.2 -1.1,2.2 -1.9,4.3 -2.2,5.7 -2.1,6.9 0.2,2.7 z m 87.5,-3.1 c -0.2,-2.3 -0.5,-4.3 -0.7,-4.4 -0.4,-0.3 -3.4,6 -3.4,7.2 0,0.6 0.3,0.8 0.9,0.6 0.5,-0.1 1.4,0 2.1,0.4 0.7,0.4 1.3,0.6 1.4,0.5 -0.1,-0.1 -0.1,-2 -0.3,-4.3 z m 65.8,3.7 c 0,-0.6 -2.9,-4.5 -3.4,-4.5 -0.3,0 -1.5,3.6 -1.5,4.6 0,0.1 1.1,0.3 2.4,0.3 1.4,0 2.5,-0.2 2.5,-0.4 z m -121.1,-7.4 c 1.6,-3.6 3,-6.8 3,-6.9 0,-0.2 -0.9,-0.3 -1.9,-0.3 -1.8,0 -2,0.1 -2.4,1.8 -1.2,4.6 -2.5,13 -1.8,12.2 0,-0.1 1.5,-3.2 3.1,-6.8 z m 24.9,5.3 c 0,-0.3 -0.3,-1.1 -0.6,-1.7 -0.6,-1 -0.6,-1 -1.6,-0.2 -0.5,0.4 -1.3,1.2 -1.6,1.7 -0.6,0.8 -0.5,0.8 1.6,0.8 1.4,0 2.2,-0.2 2.2,-0.6 z m -3,-4.5 c 1,-0.3 1,-0.4 0.2,-2 -0.4,-0.9 -1,-1.6 -1.3,-1.5 -0.5,0.2 -4.1,6.5 -4.1,7.3 0,0.2 0.9,-0.5 2.1,-1.5 1.1,-1.1 2.5,-2.1 3.1,-2.3 z m 102.1,3.6 c 0,-0.3 -0.3,-0.5 -0.8,-0.5 -0.4,0 -0.6,0.2 -0.5,0.5 0.2,0.3 0.5,0.5 0.8,0.5 0.3,0 0.5,-0.2 0.5,-0.5 z m -169.9,-0.8 c 0.5,-0.5 -1.6,-2.6 -2.6,-2.6 -0.4,0 -1.1,0.4 -1.5,0.9 -1.6,1.9 -1.5,2.1 1.2,2.1 1.4,-0.1 2.7,-0.2 2.9,-0.4 z M 119,499.9 c -0.3,-1.1 -0.4,-1.3 -0.4,-0.6 0,1.1 0.4,2.8 0.7,2.5 0,-0.2 -0.1,-1 -0.3,-1.9 z m 72.9,-1.1 c 0,-0.5 0.1,-0.5 0.3,0 0.1,0.3 0.9,0.6 1.7,0.6 1.4,0 1.4,0 1.4,-2.9 v -2.9 h 2.2 2.2 v 2.9 c 0,2.6 0.1,2.9 1,2.9 0.9,0 1,-0.3 1,-7.6 v -7.6 l -5.5,0.1 -5.5,0.1 -0.1,6.3 c -0.1,3.5 0,6.8 0.1,7.4 0.2,1.3 1.1,1.7 1.2,0.7 z m 0.4,-9.9 v -2.2 h 3.9 3.9 v 2.2 2.2 h -3.9 -3.9 z m 15.5,5 c 0.1,-4.4 0,-5.2 -0.6,-5.2 -0.6,0 -0.7,0.9 -0.7,5.4 0,4.1 0.1,5.3 0.6,5.2 0.4,-0.2 0.6,-1.8 0.7,-5.4 z m 5.3,3.5 c 0.3,-2.3 -0.3,-6.8 -0.9,-6.8 -0.2,0 -0.5,2 -0.5,4.4 0,3.2 0.2,4.4 0.6,4.2 0.4,0 0.7,-0.9 0.8,-1.8 z m -31.9,-2.2 c 0,-2.1 -0.2,-3.6 -0.5,-3.6 -0.3,0 -0.5,1.5 -0.5,3.6 0,2.1 0.2,3.6 0.5,3.6 0.3,0.1 0.5,-1.5 0.5,-3.6 z m 5.2,-1.5 c -0.1,-3.1 -0.3,-5.2 -0.6,-5.2 -0.3,0 -0.5,2.2 -0.6,5.2 -0.1,4.5 0,5.2 0.6,5.2 0.6,0 0.7,-0.8 0.6,-5.2 z M 345,489 v -2.6 l -9.6,-0.2 c -5.3,-0.1 -10.9,-0.1 -12.4,0 l -2.8,0.2 v 2.1 c 0,2 0.1,2.1 1.3,2.2 0.7,0 5.7,0.2 11.1,0.4 5.3,0.2 10.3,0.4 11.1,0.4 1.3,0.1 1.3,0 1.3,-2.5 z m -61.4,1.4 c 0.3,-0.1 0.6,-1 0.6,-2.1 v -1.9 l -12.7,-0.3 c -7,-0.2 -12.9,-0.2 -13.1,0 -0.2,0.1 -0.4,1.3 -0.4,2.6 v 2.4 l 12.5,-0.3 c 6.9,-0.1 12.8,-0.3 13.1,-0.4 z m 30.5,-0.5 c 0.2,-0.4 0.3,-1.4 0.3,-2.2 v -1.4 H 302 289.6 v 1.9 c 0,1 0.1,2 0.3,2.2 0.2,0.2 5.6,0.3 12.1,0.3 10.3,-0.1 11.8,-0.2 12.1,-0.8 z m -97.4,-3.4 c 0,-1 1.3,-0.8 2,0.3 0.6,1.1 1.5,0.8 1.5,-0.5 0,-1.2 0.6,-1.2 1.7,0 0.7,0.7 1,0.8 1.5,0.4 0.9,-0.8 0.8,-1.4 -0.6,-3.6 -1.3,-2 -0.7,-1.5 2.1,1.9 1.8,2.1 2.2,2.1 2.2,-0.4 0,-1 0.1,-1.7 0.2,-1.7 0.1,0 0.5,0.7 0.9,1.5 0.8,1.6 3.2,2.1 3.2,0.7 0,-1.1 -2.2,-5.2 -5.2,-9.8 l -2.7,-4.1 -7.8,-0.1 -7.8,-0.1 7,-0.4 c 3.8,-0.2 7.1,-0.5 7.2,-0.6 0.3,-0.3 -2.4,-4.8 -4.7,-7.8 -1,-1.3 -2.2,-2.2 -3.1,-2.4 -1.9,-0.4 -15.2,-0.4 -17.9,0 -1.9,0.3 -2.5,0.7 -5.1,3.7 -4.9,5.7 -16.7,21 -16.8,21.6 -0.1,1.7 1.6,0.9 4.9,-2.4 3.4,-3.4 3.4,-3.5 1.7,-1.1 -1.7,2.4 -2.2,3.6 -1.4,3.6 0.2,0 1.9,-2.3 3.7,-5.1 1.8,-2.8 3.4,-5 3.6,-4.9 0.1,0.1 0,0.7 -0.3,1.3 -0.3,0.6 -0.5,1.4 -0.4,1.9 0.1,0.5 0.6,0 1.3,-1.5 1.3,-2.6 5.2,-8.7 7.6,-11.9 l 1.6,-2.1 1.3,1.8 c 0.7,1 1.9,3 2.7,4.5 0.9,1.6 1.5,2.3 1.5,1.7 0,-0.6 0.9,0.4 2.5,2.7 8,11.9 11.9,16 11.9,12.9 z m -0.4,-5.5 c -1.7,-2.2 -2.6,-3.8 -1.1,-2.1 1.6,1.9 3,3.9 2.8,3.9 -0.2,0 -0.9,-0.8 -1.7,-1.8 z m 4.2,-1 c -1.4,-1.7 -2,-2.6 -1.8,-2.6 0.1,0 0.8,0.8 1.5,1.7 1.4,1.8 1.6,2.5 0.3,0.9 z m -31.6,-11.2 c 0.3,-0.5 0.9,-1.2 1.3,-1.6 0.6,-0.5 0.5,-0.2 -0.2,0.9 -1.2,1.8 -1.9,2.2 -1.1,0.7 z m 63.2,12.3 V 479 h -10.2 c -5.6,0 -10.2,0.1 -10.2,0.3 0,0.2 0.5,1.1 1.1,2.2 l 1.1,1.9 h 9.1 9.1 z m 31.6,0 V 479 h -12.6 c -8.8,0 -12.7,0.2 -12.8,0.5 -0.1,0.3 -0.1,1.3 0,2.2 l 0.2,1.6 h 12.6 12.6 z m 30.2,0 v -2.2 l -12,0.1 -12,0.1 -0.1,2.1 -0.1,2.1 h 12.2 12.2 z m 31.1,0 V 479 h -12.4 -12.4 v 2.2 2.2 h 12.4 12.4 z m 28,-0.1 0.1,-2.1 -11,0.1 -11,0.1 -0.1,2.1 -0.1,2.1 11.1,-0.1 11.1,-0.1 z m 18.2,1.1 c 3.9,-0.7 7.6,-1.3 8.3,-1.3 1.2,0 1.3,-0.2 1.8,-3.6 1.1,-7.1 4.9,-12.8 8.6,-12.8 2.5,0 4.3,1.9 7.6,8.1 1.6,3.1 3,5.5 3.1,5.4 0.2,-0.2 -0.5,-4.1 -1,-5.5 -0.2,-0.5 0.5,0.3 1.4,1.9 1.4,2.4 1.7,2.7 1.7,1.7 0,-0.7 -0.3,-2.4 -0.7,-3.8 -0.4,-1.4 -0.6,-2.5 -0.5,-2.5 0.3,0 1.8,3.3 2.7,5.8 l 0.9,2.7 -0.1,-4.3 c -0.1,-2.3 -0.1,-4.3 0,-4.3 0.4,0 2.5,5.2 2.5,6.2 0,0.6 0.2,1.1 0.5,1.1 0.4,0 0.5,-1.2 0.4,-3.6 -0.1,-2 -0.1,-3.5 0.1,-3.4 0.2,0.1 0.9,1.4 1.7,3 l 1.4,2.8 0.2,-3.2 c 0.2,-3.2 0.2,-3.2 0.8,-1.5 0.3,0.9 0.7,2.4 0.9,3.2 l 0.4,1.5 0.3,-1.9 0.3,-1.9 0.8,1.7 c 0.4,0.9 1,2.2 1.3,2.9 0.4,1 0.5,0.8 0.6,-1.7 l 0.1,-2.9 0.8,1.5 c 0.4,0.8 0.9,3 1,5 0.1,1.9 0.4,3.5 0.7,3.5 0.2,0 0.8,-0.8 1.2,-1.8 1.7,-4 -1.3,-12.3 -5.9,-16.6 -1.6,-1.5 -3.3,-2.6 -4.3,-2.7 -0.9,-0.2 -5.9,-0.1 -11.3,0.1 -7.3,0.3 -10.1,0.6 -11.2,1.2 -2.3,1.2 -5.3,4.5 -6.5,7 l -1.1,2.3 -10.9,-0.1 -10.9,-0.1 v 2.6 2.6 l 10.4,-0.1 10.4,-0.1 -0.2,1.6 -0.2,1.6 -10.2,-0.1 -10.2,-0.1 v 2.2 2.2 h 2.6 c 1.5,-0.3 5.8,-0.8 9.7,-1.5 z m 19.1,-1.1 c 2.1,-2.3 1.3,-6.2 -1.4,-7.5 -1,-0.5 -1.4,-0.4 -2.4,0.6 -0.9,0.9 -1.2,1.6 -1.2,3.4 0,1.2 0.3,2.7 0.8,3.3 0.9,1.3 3.1,1.4 4.2,0.2 z m -243.7,-4.5 c 5.5,-0.3 10.3,-0.6 10.8,-0.8 0.5,-0.1 1.1,-0.7 1.4,-1.3 0.8,-1.5 -0.1,-1.8 -4.4,-1.8 -6.5,0 -19,-0.6 -18.7,-0.9 0.2,-0.2 6.1,-0.4 13.2,-0.5 l 12.9,-0.2 1.4,-1.6 c 0.8,-0.9 1.4,-1.7 1.3,-1.7 -0.1,-0.1 -8.6,0.1 -18.8,0.3 -10.3,0.2 -18.7,0.3 -18.8,0.3 -0.1,-0.1 -0.3,-3.2 -0.5,-7.1 -0.3,-5.3 -0.5,-6.9 -1,-6.9 -0.4,0 -0.7,0.6 -0.7,1.8 0,1 -0.1,3 -0.3,4.4 l -0.3,2.6 h -3.3 c -3.2,0 -3.3,0 -3.3,-1.2 0,-1.2 0.4,-1.4 2.1,-1.2 0.8,0.1 0.9,-0.1 0.6,-1.4 -0.2,-0.8 -0.4,-2.2 -0.6,-3 -0.3,-1.5 -0.9,-1.7 -2.9,-1.2 -1,0.3 -1,0.7 -1.3,6.6 -0.2,3.5 -0.2,8.3 0,10.7 l 0.3,4.3 h 3.6 3.6 v -4.1 -4.1 h -2.9 -2.9 v -1.9 -1.9 h 2.8 c 1.5,0 3.3,-0.1 3.9,-0.3 1.1,-0.3 1.1,-0.3 1.1,6 0,3.5 0.1,6.4 0.3,6.6 0.3,0.1 9.8,0.1 21.4,-0.5 z m 85.5,-2.2 c 0,-1.3 0.4,-2.1 1.6,-3.3 l 1.6,-1.6 1.4,1.4 c 1.1,1.1 1.4,1.9 1.4,3.3 v 1.9 h 12.7 12.7 l 0.3,-2.2 c 0.2,-1.2 0.5,-2.2 0.8,-2.2 0.2,0 0.9,-0.5 1.4,-1.1 l 1,-1.1 1.3,1.3 c 0.9,0.9 1.3,1.8 1.3,3.1 l 0.1,1.8 12.3,0.1 12.3,0.1 v -1.9 c 0,-1.4 0.3,-2.2 1.5,-3.3 l 1.5,-1.4 1.5,1.4 c 1.1,1.1 1.5,1.8 1.5,3.3 v 1.9 h 12.4 12.3 v -1.6 c 0,-1.2 0.4,-2.1 1.5,-3.2 l 1.5,-1.6 1.5,1.5 c 1.1,1.1 1.5,1.9 1.4,3.2 v 1.7 h 11.1 11.1 v -1.3 c 0,-3.4 0.1,-3.4 -7.2,-3.7 -12.2,-0.6 -13,-1 -2.8,-1.4 7.8,-0.3 9.4,-0.5 10.5,-1.3 1.5,-1.1 3.9,-1.7 3.9,-1 0,0.3 0.3,0.8 0.8,1.3 0.6,0.6 2.4,0.8 11.6,0.8 h 10.8 l 1.1,-1.9 c 0.6,-1.1 0.9,-2 0.7,-2 -1.5,-0.2 -28.8,0.2 -41,0.6 -8.2,0.3 -31.4,0.5 -51.6,0.6 -36.6,0.1 -36.8,0.1 -36.9,1.1 -0.3,4.2 -0.2,4.4 1,4.6 0.7,0.1 1.4,0.4 1.7,0.6 0.3,0.3 -1.6,0.4 -5.1,0.3 -3.4,-0.1 -5.5,-0.3 -5.5,-0.6 0.1,-0.3 0.6,-0.5 1.2,-0.5 1.2,0 1.6,-1.3 1.1,-4 l -0.3,-1.7 -21.5,0.3 c -11.8,0.2 -21.6,0.4 -21.6,0.5 -0.2,0.2 0.7,1.8 3.2,5.6 l 2.2,3.3 h 11.4 11.4 z m 96.8,-2.4 c 0,-0.4 -0.2,-0.7 -0.5,-0.7 -0.3,0 -0.5,0.3 -0.5,0.7 0,0.4 0.2,0.7 0.5,0.7 0.3,0 0.5,-0.3 0.5,-0.7 z m -76.6,-30.4 v -26 l -1.1,-1.6 c -0.6,-0.9 -1.3,-1.6 -1.5,-1.6 -0.4,0 -0.3,53.8 0.1,54.8 0.1,0.3 0.7,0.6 1.4,0.5 l 1.1,-0.2 z M 445.9,466 c 1.3,-0.2 3.3,-0.7 4.4,-1.2 l 1.9,-0.9 -6.4,0.1 -6.4,0.1 0.8,1.4 c 0.6,1.1 1.1,1.3 2,1.1 0.7,-0.1 2.3,-0.4 3.7,-0.6 z m -313.3,-7.8 v -5.7 l 2.6,-0.8 c 1.4,-0.4 3.6,-1.2 4.8,-1.6 l 2.2,-0.9 5.1,1.8 c 5.7,2 8,2.4 8,1.4 0,-0.7 -11.2,-4.9 -13,-4.9 -1.2,0 -12.1,3.8 -12.8,4.4 -0.3,0.3 -0.1,0.6 0.5,0.7 0.9,0.2 1,0.6 0.8,5.8 -0.1,5.3 -0.1,5.6 0.9,5.6 0.8,-0.1 0.9,-0.4 0.9,-5.8 z m 20.4,0.3 c 0,-5 -0.1,-5.3 -1,-5.3 -0.9,0 -1,0.3 -1,5.3 0,5 0.1,5.3 1,5.3 0.9,0.1 1,-0.2 1,-5.3 z m -31.1,4.4 c 0,-0.5 -2.9,-2.1 -3.2,-1.8 -0.1,0.1 0,0.7 0.3,1.3 0.5,1 2.9,1.4 2.9,0.5 z m 67.8,-0.5 c 0.2,-0.3 0.2,-0.6 0.1,-0.7 -0.1,-0.1 -5,-0.4 -10.9,-0.5 l -10.7,-0.3 -0.2,-2.4 -0.2,-2.4 h 12.4 c 8.3,0 12.6,0.2 13,0.5 0.4,0.4 0.8,0.4 1.5,0 0.6,-0.3 4.3,-0.5 10.4,-0.3 5.2,0.1 17.9,0.2 28.3,0.2 l 18.8,0.1 v 2.7 c 0,2.6 0,2.7 1.4,2.7 1.3,0 1.4,-0.2 1.7,-2 0.3,-1.7 0.6,-2.1 2.1,-2.7 2,-0.9 5.2,-0.6 6.3,0.5 0.4,0.4 0.8,1.6 1,2.7 0.3,2.3 1.1,2.4 1.7,0.3 0.5,-1.6 0.1,-5.4 -0.6,-5.8 -0.3,-0.2 -0.5,-6.3 -0.5,-15.1 0,-13.8 -0.2,-16.2 -1.3,-15.2 -0.1,0.1 -0.4,6.9 -0.6,15.1 -0.3,11.9 -0.5,14.8 -1,14.5 -0.5,-0.3 -0.7,-3.8 -1,-14.3 -0.2,-7.6 -0.5,-14.1 -0.7,-14.3 -0.2,-0.2 -0.5,-0.2 -0.7,0 -0.2,0.2 -0.4,6.7 -0.5,14.5 -0.1,10.7 -0.3,14 -0.7,13.9 -0.4,-0.1 -0.6,-4.2 -0.8,-15.8 -0.2,-11.5 -0.4,-15.8 -0.8,-16.2 -0.3,-0.3 -0.8,-0.4 -1,-0.2 -0.2,0.2 -0.4,7.6 -0.5,16.4 -0.1,9.8 -0.3,16 -0.6,16 -0.3,0 -0.5,-6.2 -0.5,-16.3 v -16.3 h -1.2 -1.2 v 16.5 16.5 h -26.7 -26.7 v -5.3 -5.4 h -16.3 -16.3 v 3.9 3.9 h 3.9 3.9 v -2.2 c 0,-1.2 0.2,-2.2 0.5,-2.2 0.3,0 0.5,1 0.5,2.2 v 2.2 l 10.6,0.1 c 10.5,0.1 10.6,0.1 10.7,1.2 0.1,1 0,1.1 -3.4,1 -2,-0.1 -10.7,0 -19.5,0 -13.1,0.1 -15.9,0.2 -15.9,0.8 0,0.8 2.4,1.3 6.2,1.3 h 2.6 v 2.4 2.4 l -3,0.1 -3,0.1 3.6,0.4 c 9.2,1 25.3,1.6 25.8,0.8 z M 169,449.3 c 0,-1.4 0.2,-1.9 0.7,-1.9 0.5,0 0.7,0.5 0.7,1.9 0,1.4 -0.2,1.9 -0.7,1.9 -0.5,0 -0.7,-0.5 -0.7,-1.9 z m 9.1,1.6 c -0.5,-0.5 -0.4,-3.6 0.2,-3.6 0.3,0 0.5,0.5 0.5,1.2 0,0.6 0.1,1.5 0.3,1.9 0.2,0.8 -0.4,1.1 -1,0.5 z M 308,443.5 c 0,-16.2 -0.1,-18 -0.8,-18.2 -0.4,-0.2 -0.9,-0.2 -1.1,0 -0.4,0.4 -0.7,27.4 -0.3,32.1 0.3,3.6 0.5,4.1 1.3,4.1 0.9,0 0.9,-0.7 0.9,-18 z m -5.3,2.7 c 0,-8 -0.1,-14.6 -0.2,-14.7 -0.1,-0.1 -1.9,-0.2 -4,-0.2 l -3.9,-0.1 -0.2,1.3 c -0.1,1.2 -0.3,1.3 -1.9,1.2 -1.4,-0.1 -1.8,-0.4 -2.1,-1.4 -0.2,-0.8 -0.7,-1.3 -1.4,-1.4 -0.9,-0.1 -1.1,0.1 -1.1,1.1 0,1.1 -0.2,1.2 -1.9,1.2 -1.8,0 -1.9,-0.1 -1.9,-1.5 0,-1.4 -0.1,-1.5 -1.9,-1.5 -1.7,0 -1.9,-0.2 -1.9,-1 0,-1 0.1,-1 5.1,-0.7 2.8,0.2 7.8,0.6 11.2,0.9 l 6.1,0.6 v -1 c 0,-0.6 -0.2,-1.1 -0.4,-1.1 -0.2,0 -6.3,-0.6 -13.5,-1.4 -7.2,-0.8 -13.3,-1.3 -13.5,-1.2 -0.2,0.1 -0.4,7.2 -0.4,15.8 v 15.5 h 13.6 c 7.5,0 13.6,0.2 13.6,0.4 0,0.2 -6.1,0.3 -13.6,0.2 l -13.6,-0.1 v 1.6 c 0,0.9 0.1,1.8 0.3,2 0.2,0.2 6.4,0.3 13.9,0.2 l 13.6,-0.1 z m -19,6 c 0,-0.3 2.2,-0.5 5.6,-0.5 3.4,0 5.6,0.2 5.6,0.5 0,0.3 -2.2,0.5 -5.6,0.5 -3.4,0 -5.6,-0.2 -5.6,-0.5 z m -1.9,-2.9 c 0,-0.2 0.5,-0.5 1.1,-0.6 1.1,-0.2 1.1,-0.3 1.2,-7.1 l 0.1,-6.9 h 1.9 1.9 l 0.1,6.7 c 0.1,6.5 0.2,6.7 1.2,6.8 1.1,0.2 1.1,0.1 1.1,-6.7 v -6.8 h 1.9 1.9 v 7 7 h 1.2 c 0.7,0 1.3,0.2 1.5,0.5 0.2,0.3 -2.4,0.5 -7.5,0.5 -4.3,0.1 -7.6,-0.1 -7.6,-0.4 z m 124.1,11.4 c 2.4,-0.3 2.7,-0.5 2.2,-1 -0.5,-0.5 -3.8,-0.7 -15.1,-0.7 l -14.5,-0.1 v -6.9 -6.9 l 15.4,0.1 c 8.5,0.1 15.9,0 16.5,-0.1 0.6,-0.2 1.1,-0.6 1.1,-1 0,-0.6 -1,-0.7 -6.1,-0.7 h -6.1 l -0.1,-9.8 -0.1,-9.8 -1.5,0.2 c -1.6,0.2 -2.5,0.8 -3.2,2.1 -0.4,0.8 -0.3,0.8 1,0.6 l 1.5,-0.3 v 8.3 c 0,5.2 -0.2,8.3 -0.5,8.3 -0.3,0 -0.5,-2.4 -0.5,-6.3 v -6.3 h -4.4 -4.4 v 6.1 c 0,5.8 0.1,6.1 1,6.1 0.9,0 1,-0.3 1,-5.1 v -5.1 h 2.1 c 2.1,0 2.1,0 2.4,1.8 0.2,1 0.3,3.4 0.3,5.3 v 3.5 l -7.7,0.1 c -4.2,0.1 -7.7,0.1 -7.8,0.1 -0.1,-0.1 -0.2,-4.5 -0.2,-10 l -0.1,-9.9 -1.3,-0.2 -1.3,-0.2 v 18.9 18.9 l 13.7,0.2 c 7.7,0.1 15.2,0 16.7,-0.2 z M 451,441.9 c 0,-17.1 -0.1,-19 -0.8,-18.7 -0.4,0.2 -1.1,0.3 -1.5,0.3 -0.7,0 -0.7,1.1 -0.5,9.7 l 0.3,9.7 H 433 417.5 v -10 c 0,-8.9 -0.1,-10 -0.8,-9.7 -0.4,0.2 -1,0.3 -1.3,0.3 -0.5,0 -0.7,10.9 -0.4,29.8 l 0.1,5.2 h 1.2 c 1.2,0 1.2,-0.1 1.2,-3.6 v -3.6 h 3 3 l -0.2,3.3 c -0.2,3.1 -0.1,3.3 0.9,3.4 1,0.1 1.1,0 1.1,-3.3 v -3.4 h 1.4 1.4 l -0.1,3.3 c -0.1,3 0,3.3 0.9,3.3 0.9,0 1,-0.3 0.9,-3.3 l -0.1,-3.3 h 1.7 1.7 l -0.3,2.6 c -0.4,3.4 0,5.1 1.3,5.1 0.7,0 1,-0.3 1,-1.2 v -1.2 h 6.8 c 6.3,0 6.8,0.1 6.7,0.9 -0.1,0.7 -0.9,0.9 -6.1,1 -5.5,0.1 -5.9,0.2 -5.9,1.1 0,0.5 0.2,1 0.5,1.1 0.3,0.1 3.6,0.2 7.3,0.3 l 6.8,0.1 z m -16.1,10.5 v -1.3 l 6.6,0.2 c 3.6,0.1 6.7,0.4 6.9,0.5 0.2,0.2 0.2,0.6 0,1.1 -0.2,0.6 -1.4,0.8 -6.9,0.8 h -6.6 z m -4.4,-4.1 c 0,-1.2 -0.2,-1.5 -1.2,-1.5 -1,0 -1.2,0.2 -1.2,1.2 0,1 -0.2,1.2 -1.5,1.2 -1.2,0 -1.5,-0.2 -1.5,-1.2 0,-0.9 -0.3,-1.2 -1,-1.2 -0.6,0 -1.1,0.4 -1.3,1.2 -0.4,1.6 -2,1.6 -2.2,0.1 -0.2,-1.5 -1.7,-1.7 -1.9,-0.3 -0.1,0.6 -0.4,1.2 -0.8,1.3 -0.4,0.1 -0.6,-0.5 -0.6,-2 v -2.2 h 15.7 15.6 l -0.1,2.1 c -0.1,1.8 -0.3,2.1 -1.4,2.1 -0.9,0 -1.3,-0.3 -1.4,-1.1 -0.2,-1.2 -1.5,-1.9 -1.8,-1 -0.6,2.1 -0.8,2.3 -1.9,2.3 -0.9,0 -1.3,-0.3 -1.5,-1.2 -0.2,-0.8 -0.6,-1.2 -1.2,-1.2 -0.7,0 -0.9,0.2 -0.6,1.2 0.3,1.2 0.2,1.2 -1.7,1.2 -1.9,0 -2,-0.1 -1.8,-1.2 0.2,-1 0,-1.2 -0.9,-1.2 -0.8,0 -1.2,0.4 -1.4,1.5 -0.2,1 -0.6,1.5 -1.3,1.5 -0.8,-0.1 -1.1,-0.4 -1.1,-1.6 z m 52.4,9.4 c 0.1,-1.7 0,-3 -0.1,-3 -0.1,0 -1.3,0.6 -2.6,1.3 -2,1.1 -2.8,1.2 -5.1,1 l -2.8,-0.2 v 2.2 2.2 l 5.2,-0.1 5.2,-0.1 z m -75.3,-4.9 c -0.1,-5 -0.2,-5.7 -1,-5.9 -0.8,-0.1 -0.9,0.3 -0.8,4.6 0,5.4 0.3,7 1.3,7 0.5,0 0.6,-1 0.5,-5.7 z m -295.8,3.6 c 1,-1.2 1.9,-1.8 3.3,-2 2.2,-0.4 2.4,-0.7 0.7,-1.7 -1.2,-0.6 -1.2,-0.7 -0.4,-1.3 1.6,-1.1 4.2,-0.7 7,1.1 4.6,2.9 7.2,1.7 3.8,-1.7 -5.2,-5.2 -13.9,-4.1 -17.2,2.1 -0.8,1.6 -0.9,4.6 -0.1,4.9 1.2,0.4 1.6,0.2 2.9,-1.4 z m 270.1,-3.9 c 0,-4.4 -0.1,-5.6 -0.7,-5.6 -1,0 -1.2,1.3 -0.9,6.5 0.2,3.5 0.4,4.7 0.9,4.7 0.6,0 0.7,-1.2 0.7,-5.6 z m 3.4,0 c 0,-5.3 -0.1,-5.6 -1,-5.6 -0.9,0 -1,0.3 -1,5.6 0,5.3 0.1,5.6 1,5.6 1,0 1,-0.4 1,-5.6 z m 6.4,-0.1 c 0,-5.1 -0.1,-5.6 -0.9,-5.5 -0.7,0.1 -0.9,0.8 -1,4.5 -0.2,5 0.1,6.6 1.1,6.6 0.6,0.1 0.8,-0.9 0.8,-5.6 z m 3.4,0.1 c 0,-4.5 -0.1,-5.6 -0.7,-5.6 -1,0 -1.3,1.1 -1.3,6.4 0,4.5 0.1,4.8 1,4.8 0.9,0 1,-0.4 1,-5.6 z m 6,0 c 0,-4.7 -0.1,-5.4 -0.9,-5.5 -0.8,-0.1 -0.9,0.4 -0.9,5.5 0,5.1 0.1,5.6 0.9,5.5 0.8,-0.2 0.9,-0.8 0.9,-5.5 z m 3.7,4 c 0,-0.9 -0.1,-3.4 -0.3,-5.6 -0.3,-3.5 -0.4,-4 -1.2,-4 -0.8,0 -0.9,0.5 -0.9,5.3 0,2.9 0.1,5.4 0.3,5.6 0.2,0.2 0.7,0.3 1.2,0.3 0.7,0 0.9,-0.4 0.9,-1.6 z m 6.1,-1.4 c -0.2,-1.6 -0.3,-4.2 -0.3,-5.6 0,-2 -0.2,-2.6 -0.7,-2.6 -0.6,0 -0.7,0.9 -0.7,5.3 0,5.4 0.1,5.9 1.4,5.9 0.5,0 0.6,-0.6 0.3,-3 z m -62,-2.6 c 0,-3.1 -0.2,-5.1 -0.5,-5.1 -0.3,0 -0.5,2 -0.5,5.1 0,3.1 0.2,5.1 0.5,5.1 0.3,0 0.5,-2.1 0.5,-5.1 z m 4.7,-0.2 c 0.1,-4.2 0,-4.9 -0.6,-4.9 -0.6,0 -0.7,0.8 -0.7,5.1 0,3.9 0.1,5.1 0.6,4.9 0.4,-0.1 0.6,-1.7 0.7,-5.1 z m 4.5,-0.1 c 0,-4 -0.1,-4.8 -0.7,-4.8 -0.6,0 -0.7,0.9 -0.7,4.8 0,2.6 0.1,4.9 0.3,5.1 0.8,0.8 1.1,-0.7 1.1,-5.1 z m 4.4,0.3 c 0,-4.2 -0.1,-5.1 -0.7,-5.1 -0.6,0 -0.7,0.8 -0.7,4 0,4.3 0.3,6.2 1,6.2 0.2,0 0.4,-2.3 0.4,-5.1 z m 4.4,4.2 c 0.1,-0.5 0.1,-2.8 0,-5.1 -0.1,-3.5 -0.3,-4.3 -0.9,-4.3 -0.6,0 -0.7,0.5 -0.5,3 0.2,1.6 0.3,3.9 0.3,5.1 0.1,2.1 0.8,3 1.1,1.3 z m 4.8,-2.9 c 0,-4 -0.3,-6 -1,-6 -0.2,0 -0.4,2.2 -0.4,4.9 0,4 0.1,4.9 0.7,4.9 0.6,0 0.7,-0.8 0.7,-3.8 z m 16.9,-1 c -0.2,-2.6 -0.3,-5 -0.3,-5.3 0,-0.3 -0.4,-0.6 -1,-0.6 -1.1,0 -1.2,0.8 -0.7,7 0.3,3.3 0.4,3.7 1.3,3.7 0.9,0 1,-0.3 0.7,-4.8 z m 9.6,3.2 c 0.4,-1.9 0.4,-7.4 0,-8.4 -0.2,-0.4 -0.6,-0.8 -1,-0.8 -0.5,0 -0.7,1.1 -0.7,5.3 0,4.2 0.1,5.3 0.7,5.3 0.4,0.2 0.8,-0.5 1,-1.4 z m 23.4,1.1 c 0.4,-0.6 -0.2,-2.4 -0.8,-2.4 -0.2,0 -0.5,0.7 -0.5,1.5 0,1.3 0.7,1.8 1.3,0.9 z m -88.3,-1.1 4.6,-0.1 -4.6,-0.4 c -7,-0.5 -23.3,-0.5 -23.3,0 0,0.6 5.2,0.9 12.6,0.7 3.4,0 8.2,-0.1 10.7,-0.2 z m 132.5,-5.2 c -5.2,-3.5 -2.4,-11.2 4.1,-11.2 h 2.1 l -1.8,-1.4 c -2.1,-1.7 -2.6,-3.2 -1.9,-5.8 1.1,-3.9 5.7,-6.1 8.2,-3.8 0.6,0.5 1.1,0.8 1.2,0.7 1.5,-2.1 1.7,-2.8 1,-3.4 -0.4,-0.3 -0.9,-1.5 -1,-2.5 l -0.3,-1.9 -1.4,1.5 c -1.6,1.7 -1.6,1.7 -2.9,1 -1.4,-0.8 -1.2,-3.2 0.4,-4.8 1.4,-1.4 4.1,-2.4 6.3,-2.4 0.8,0 1.1,-0.3 1.1,-1.2 0,-2.7 3.4,-4.8 4.9,-3 0.6,0.7 0.7,0.7 1.1,0 1,-1.8 3,-0.2 3.7,3.1 0.3,1.2 0.6,2.2 0.7,2.3 0.1,0.1 0.9,-0.1 1.6,-0.6 2.7,-1.5 5.5,1 5.5,5.1 0,1.7 0.5,1.9 1.6,0.6 2.7,-3.2 0.5,-8.5 -3.9,-9.2 -1.5,-0.2 -2,-0.5 -2,-1.3 0,-3.1 -3.2,-5.5 -6.8,-5.1 -7.2,0.9 -7.7,1.2 -9.3,5.3 -0.4,1.1 -0.7,1.3 -1.5,1.1 -1.5,-0.5 -4.2,0.6 -5.8,2.4 -1.7,1.9 -2.4,5.1 -1.5,7.3 0.5,1.4 0.4,1.6 -1.1,2.9 -2.5,2.2 -3.4,4.3 -3.4,8 0.1,3.1 0,3.2 -1.7,4.3 -1.8,1.2 -3.6,4.3 -3.6,6.5 0,3.5 2.4,6.2 5.5,6.2 h 2 z m -219.5,0 c 0,-0.3 -7.3,-0.5 -20.9,-0.5 -13.6,0 -20.9,0.2 -20.9,0.5 0,0.3 7.3,0.5 20.9,0.5 13.6,0 20.9,-0.2 20.9,-0.5 z m 248.9,-2.9 c 0.9,-1.7 0.6,-3.4 -1,-5 -1.4,-1.4 -1.5,-1.4 -2.6,-0.8 -1.5,1 -1.7,2.3 -0.4,2.3 1.3,0 2.1,1.6 1.9,3.7 -0.2,1.4 -0.1,1.6 0.7,1.1 0.5,-0.2 1.1,-0.8 1.4,-1.3 z m -281,-7.5 v -6 h 2.2 2.2 v 6 6 h 1.5 1.5 l -0.2,-9 c -0.2,-8.4 -0.2,-9 0.7,-9.2 0.6,-0.2 0.9,-0.7 0.9,-1.7 0,-1.7 -0.5,-1.9 -1.7,-0.6 -0.8,0.9 -1.3,0.9 -5.8,0.7 -3.7,-0.2 -5,-0.4 -5.5,-1 -0.7,-1 -1.7,-0.4 -1.7,1.1 0,0.7 0.4,1.2 1,1.4 0.9,0.2 1,0.7 1,9.3 v 9 h 1.9 1.9 z m -0.3,-7.9 c -0.3,-0.1 -0.6,-1 -0.6,-1.9 v -1.7 h 2.7 2.7 v 1.9 1.9 h -2.1 c -1.2,0 -2.4,-0.1 -2.7,-0.2 z m 19.2,8.1 -0.2,-5.8 h 2.1 2.1 v 5.8 5.8 h 1.5 1.5 v -8.9 c 0,-8.3 0.1,-9 0.9,-9.2 1,-0.3 1.6,-1.9 1,-2.9 -0.3,-0.5 -0.6,-0.4 -1.5,0.5 -1,1.1 -1.3,1.1 -5.9,0.9 -3.8,-0.2 -5,-0.4 -5.5,-1 -0.9,-1.2 -1.7,-0.9 -1.7,0.7 0,1.1 0.2,1.5 1,1.5 0.9,0 1,0.3 1,9.2 v 9.2 h 2 2 z m -0.9,-9.7 v -2 h 2.7 2.7 l -0.2,1.8 -0.2,1.8 -2.6,0.1 -2.6,0.1 z m -70.7,13.8 c 0,-0.6 -36.9,-1 -38.2,-0.4 -1.6,0.7 2.9,0.9 20.2,0.9 11.6,0 18,-0.2 18,-0.5 z m 176.9,-0.4 c 0,-0.4 -0.1,-5.5 -0.1,-11.3 l -0.1,-10.5 -5,0.1 -5,0.1 -0.1,11.1 -0.1,11.1 h 1.7 1.7 v -5.1 -5.1 h 2.2 2.2 v 5.1 c 0,4.4 0.1,5.1 0.9,5.3 1.2,0.3 1.7,0.1 1.7,-0.8 z m -7,-14 v -1.9 h 2.7 2.7 v 1.9 1.9 h -2.7 -2.7 z m -19.5,9.4 -0.2,-5.2 h 1.9 1.9 l 0.1,5.2 c 0.1,5.2 0.1,5.2 1.3,5.2 h 1.2 V 434 423.1 h -1.8 c -1.8,0 -2,-0.2 -4.8,-4.1 -1.7,-2.3 -3.3,-4.1 -3.7,-4.1 -0.4,0 -0.7,0.1 -0.7,0.3 0,0.1 1.3,2.2 2.9,4.5 3.1,4.5 3.3,5.7 1.1,6.2 -0.6,0.2 -1.2,0.6 -1.2,1 0,1.1 1.9,1.8 4.2,1.5 l 2.1,-0.3 v 1.9 c 0,2.1 -0.5,2.5 -3.4,2.5 H 311 v 6.3 c 0,4.3 0.2,6.3 0.5,6.3 0.4,-0.2 0.5,-1.8 0.4,-5.4 z m 61.3,4.5 c 0,-0.6 -1.8,-0.7 -13.1,-0.7 -11.3,0 -13.1,0.1 -13.1,0.7 0,0.6 1.8,0.7 13.1,0.7 11.3,0 13.1,-0.1 13.1,-0.7 z m 106.1,-0.3 c -0.9,-0.9 -0.7,-2.7 0.5,-3.5 l 1.1,-0.8 -1.4,-1.2 c -1.6,-1.4 -1.9,-1.5 -2.9,-0.3 -1.4,1.5 -1.3,4.1 0.2,5.4 1.2,1 3.5,1.4 2.5,0.4 z m -303.1,-1.2 1.5,-0.8 v -5.1 -5.1 h 1.5 1.5 v 5.3 c 0,5 0.1,5.3 0.9,5.3 1.1,0 1.3,-1.1 1.8,-10.8 0.2,-4 0.5,-5.7 0.9,-5.6 0.4,0.1 0.6,2.7 0.7,8.3 l 0.1,8.1 2.5,-0.1 2.5,-0.1 0.1,-5.5 0.1,-5.5 1.6,0.2 1.6,0.2 0.1,5.4 c 0.1,4.5 0.3,5.5 0.9,5.7 1.3,0.5 1.6,-0.7 1.4,-4.8 -0.3,-4.9 0.1,-6.6 1.3,-6.6 0.5,0 0.9,-0.2 0.9,-0.5 0,-0.3 -0.4,-0.5 -0.9,-0.5 -1,0 -1.5,-0.9 -1.5,-2.7 0,-0.9 0.3,-1.2 1.2,-1.2 1.3,0 1.8,-0.8 1.8,-3.4 0,-1.5 -0.2,-1.9 -1.1,-2.1 -0.6,-0.2 -7.9,-0.3 -16.3,-0.3 h -15.2 v 11.5 11.4 h 4.3 c 2.9,0.1 4.8,-0.2 5.8,-0.7 z m -3.5,-9 c -0.3,-7.8 -0.2,-9 0.7,-8.4 0.6,0.3 0.6,16.3 0,16.3 -0.2,-0.1 -0.5,-3.6 -0.7,-7.9 z M 169,433 c 0,-5 0.2,-8 0.5,-8 0.3,0 0.5,3 0.5,8 0,5 -0.2,8 -0.5,8 -0.3,0 -0.5,-3 -0.5,-8 z m 22.5,-3 c -1.5,-0.2 -1.6,-0.3 -1.6,-2 v -1.8 l 1.9,0.2 c 1.8,0.2 1.9,0.3 1.9,1.8 0.1,1.9 -0.1,2 -2.2,1.8 z m -13.7,-1.8 c 0,-2 0.2,-2.2 2.3,-1.9 1.4,0.2 1.6,0.4 1.6,1.9 0,1.6 -0.1,1.6 -1.9,1.6 -2,0.1 -2,0 -2,-1.6 z m -9.3,-6.6 c 0,-0.3 0.2,-0.5 0.5,-0.5 0.3,0 0.5,0.2 0.5,0.5 0,0.3 -0.2,0.5 -0.5,0.5 -0.3,0 -0.5,-0.2 -0.5,-0.5 z m 198.7,10.7 -0.1,-9.4 -1.2,-0.2 c -0.7,-0.1 -3.2,0 -5.7,0.2 l -4.5,0.3 0.1,2 0.1,2 5.2,0.1 5.2,0.1 v 1.4 c 0,0.8 -0.2,1.4 -0.5,1.4 -0.3,0 -0.5,-0.2 -0.5,-0.5 0,-0.3 -0.4,-0.5 -1,-0.5 -0.5,0 -1,0.3 -1,0.7 0,0.6 -0.8,0.7 -3.9,0.7 h -3.9 l 0.1,5.5 c 0.1,5.1 0.2,5.5 1.2,5.6 0.8,0.1 1.1,-0.2 1.3,-1.7 0.2,-1 0.3,-3.1 0.3,-4.6 v -2.8 h 1.9 1.9 v 4.4 c 0,2.4 0.2,4.4 0.4,4.4 0.6,0 1,-1.3 1,-3.4 0,-2.9 0.8,-2.3 1.2,0.9 0.3,2.7 1,3.9 1.8,3.1 0.6,-0.1 0.7,-4.6 0.6,-9.7 z m -232.8,4.5 0.1,-5 h 1.4 1.4 v 5.1 5.1 h 1.2 1.2 l -0.1,-9 -0.1,-9 h -4.1 -4.1 v 9 9 l 1.3,-0.2 1.3,-0.2 z m 0.1,-8.6 c 0,-1.6 0.1,-1.7 1.5,-1.7 1.3,0 1.5,0.1 1.5,1.7 0,1.6 -0.1,1.7 -1.5,1.7 -1.4,0 -1.5,-0.2 -1.5,-1.7 z m 16.2,13 c 0.2,-0.4 0.3,-2.8 0.3,-5.3 v -4.5 l 1.5,0.2 1.5,0.2 v 5.1 c 0,5 0,5.1 1.1,4.9 1.1,-0.2 1.1,-0.2 1.2,-9 l 0.1,-8.9 h -4.4 -4.3 v 9 9 h 1.4 c 0.8,0.1 1.5,-0.2 1.6,-0.7 z m 0.3,-13 c 0,-1.6 0.1,-1.7 1.5,-1.7 1.3,0 1.5,0.1 1.5,1.7 0,1.6 -0.1,1.7 -1.5,1.7 -1.4,0 -1.5,-0.2 -1.5,-1.7 z m 285.4,12.4 c 0,-0.3 -0.2,-0.6 -0.5,-0.8 -0.3,-0.2 -0.5,-2.2 -0.5,-4.6 v -4.3 l -4.4,0.1 -4.4,0.1 -0.1,4.1 c -0.1,3.5 -0.3,4.2 -1,4.3 -0.8,0.1 -0.9,-0.5 -0.9,-8.1 0,-8.7 0,-8.8 -2.1,-8 -0.7,0.3 -0.8,1.5 -0.8,8.7 0,4.6 0.1,8.5 0.3,8.7 0.6,0.4 14.4,0.3 14.4,-0.2 z m -8.3,-2.9 c 0,-2.5 0.4,-3 2.7,-3 h 2.1 v 2.2 2.2 h -2.4 c -2.3,0 -2.4,0 -2.4,-1.4 z M 105,439.1 c 2,0 2,0 1,-0.9 -0.6,-0.5 -1.3,-1.4 -1.6,-2 -0.5,-1 -0.7,-1 -1.3,-0.4 -0.4,0.4 -0.9,1.4 -1.1,2.3 -0.4,1.4 -0.3,1.6 0.3,1.3 0.3,-0.2 1.6,-0.3 2.7,-0.3 z m 401.5,-1.3 c 1.3,-1.1 1.2,-5.1 -0.1,-7.2 -1.1,-1.8 -3.9,-3.3 -5.3,-2.9 -0.6,0.2 -1.1,0 -1.5,-0.7 -0.7,-1.3 -3.7,-2.1 -5.9,-1.6 -4.1,0.9 -6.1,2.8 -6.6,6.5 -0.3,2 -0.3,2.1 0.6,1.3 1.4,-1.2 5.9,-3.3 6.9,-3.3 0.5,0 1.4,0.7 2,1.5 1,1.4 1.1,1.4 2.2,0.7 1.6,-1.1 2.9,-0.9 3.8,0.3 1.1,1.5 0.9,3.3 -0.3,4.6 l -1,1.1 1.8,-0.3 c 1.2,-0.2 1.8,-0.1 1.8,0.3 0,0.7 0.5,0.6 1.6,-0.3 z M 111.7,427.4 c 0,-0.5 0.1,-0.9 0.3,-0.9 0.6,0 2.1,1.6 2.1,2.3 0,0.4 0.2,0.7 0.4,0.7 0.7,0 1.1,-4.2 0.6,-6.3 -0.5,-2 -1.5,-3.1 -1.5,-1.8 0,1.2 -0.6,0.9 -2.6,-1.1 -1.4,-1.4 -2.1,-1.8 -3,-1.6 -1.5,0.3 -1.5,0.7 0,4.6 0.6,1.7 1.3,4.1 1.5,5.3 l 0.4,2.2 0.9,-1.1 c 0.4,-0.9 0.9,-1.8 0.9,-2.3 z m 326.3,0.9 c -0.6,-0.6 -6.4,-2.6 -9.1,-3.1 -1.5,-0.3 -1.7,-0.2 -1.7,0.7 0,0.8 0.6,1.1 3.8,1.8 2.1,0.4 4,0.9 4.3,1 0.3,0.1 1.1,0.2 1.9,0.2 1,0 1.2,-0.1 0.8,-0.6 z m -200.4,-2.7 c 0,-0.2 -0.6,-0.9 -1.2,-1.6 -1,-0.9 -1.4,-1.1 -2.1,-0.6 -1.6,1 -1.3,2 0.7,2.2 1,0.1 2,0.2 2.2,0.3 0.2,0 0.4,-0.1 0.4,-0.3 z m -20,-1.5 -1.7,-1.4 -1.1,1 c -0.6,0.6 -1.1,1.2 -1.1,1.4 0,0.2 1.2,0.4 2.8,0.4 h 2.8 z m 89.7,-4.2 c -1,-1.2 -2.9,-3.5 -4.1,-5 -3.8,-4.9 -11.5,-13.8 -13.6,-15.8 -2,-1.9 -8.7,-9.9 -10.3,-12.3 -0.5,-0.7 -0.8,-1.8 -0.8,-2.5 0,-1.1 0.3,-0.9 2.9,1.9 l 2.9,3.1 1.2,-2.6 1.2,-2.6 -2.8,-1.4 c -3.9,-2 -4.2,-2.5 -1.3,-2.1 1.3,0.2 2.9,0.4 3.4,0.6 0.9,0.3 1.1,-0.1 1.8,-4.2 l 0.8,-4.5 -1.3,-1.8 c -3.3,-4.6 -9.9,-13.5 -10.9,-14.8 l -1.1,-1.4 -2.9,2 c -1.6,1.1 -5.5,3.3 -8.6,5 -3.1,1.6 -5.7,3.2 -5.7,3.5 0,0.8 3.9,8.8 4.7,9.7 1.5,1.7 1.9,1.1 1.7,-3.4 l -0.2,-4.3 1.9,-0.3 c 4.6,-0.8 11.1,-0.1 11.9,1.2 0.2,0.4 0.4,1.9 0.4,3.4 0,2.2 -0.2,2.8 -0.7,2.8 -0.9,0 -0.9,1.1 -0.1,3.3 0.5,1.4 0.5,1.7 -0.2,2.1 -0.7,0.4 -0.8,1.3 -0.8,7.4 0,3.8 0.2,7.8 0.4,9 0.3,1.7 0.3,2.1 -0.4,2.1 -1.2,0 -7.6,-1.3 -8.2,-1.6 -0.6,-0.4 -6.5,-9.1 -6.2,-9.1 0.1,0 1.1,1.2 2.2,2.7 1.2,1.7 2.3,2.7 2.9,2.7 1.8,0 1.1,-2.1 -2.5,-7.5 -1.9,-2.9 -3.4,-5.3 -3.2,-5.5 0.1,-0.1 1.8,1.5 3.6,3.6 l 3.3,3.9 0.1,-3.7 c 0.2,-4.4 -0.1,-4.7 -4.1,-5.8 -1.6,-0.4 -3.3,-1 -3.7,-1.2 -0.5,-0.3 -1.9,-2.2 -3.2,-4.4 l -2.3,-4 -0.6,1.9 c -0.3,1.1 -0.6,2.4 -0.6,3 0,0.6 -0.4,1.2 -0.7,1.4 -0.9,0.4 -22.3,-3.9 -28,-5.6 -0.9,-0.3 -1.8,-0.3 -2,-0.1 -0.2,0.2 -3.7,5.2 -7.8,11.1 -4.1,5.9 -7.9,11.4 -8.5,12.2 -0.6,0.8 -3.1,4.5 -5.7,8.3 -2.6,3.8 -5.8,8.5 -7.2,10.5 -2.4,3.4 -2.9,5.3 -1.5,5.3 0.8,0 4.8,-5.5 18.3,-25 2.1,-3.1 4.9,-7 6.1,-8.7 1.2,-1.7 3.4,-4.8 5,-7.1 l 2.8,-4.1 2,2.6 c 6.1,8 20.2,27.6 26.7,37.1 1.5,2.1 2.7,4 2.8,4.1 0.1,0.1 10.3,1.4 11.8,1.5 0.7,0 -0.8,-3 -2.1,-4.4 -0.9,-0.9 -2.2,-2.7 -3,-3.9 -0.8,-1.2 -2.3,-3.4 -3.4,-4.9 -2.8,-3.7 -4,-5.6 -3.2,-5.2 0.3,0.2 1.5,1.7 2.6,3.4 3.9,5.7 5.3,7.1 7.1,7.1 h 1.7 l -1,-1.1 c -0.5,-0.6 -1.6,-2.1 -2.4,-3.3 -0.8,-1.2 -1.7,-2.6 -2.2,-3 -1.1,-1.2 -3.1,-5 -2.5,-4.6 0.3,0.2 2.1,2.6 4.1,5.3 2,2.7 5.1,6.9 7.1,9.3 2,2.3 3.5,4.7 3.5,5.2 0,0.5 0.2,1 0.4,1 1.3,0.1 28.7,4.1 32,4.8 1.1,0.2 2,0.3 2.1,0.2 0,-0.2 -0.8,-1.3 -1.8,-2.5 z m -5.7,-2.3 c -0.4,-0.3 -1.6,-1.7 -2.6,-3 -1,-1.3 -3.6,-4.7 -5.7,-7.5 -5.2,-6.8 -4,-5.9 2.4,2 6.6,7.9 8.2,10.3 5.9,8.5 z m -6.3,-1.7 c -0.9,-1 -3.1,-3.7 -4.8,-5.9 -1.7,-2.3 -3.3,-4.4 -3.6,-4.8 -0.4,-0.5 -0.4,-0.6 0,-0.4 0.8,0.5 10.5,12.5 10.3,12.8 -0.1,0 -0.9,-0.7 -1.9,-1.7 z m -10.4,-3.2 c -3.9,-4.3 -5.3,-6.6 -1.7,-2.8 3,3.2 5.1,5.8 4.7,5.8 -0.1,0.1 -1.4,-1.3 -3,-3 z m 4.4,1.3 c -0.8,-1 -1.7,-2.3 -2.1,-2.9 -0.4,-0.6 -1.2,-1.8 -1.9,-2.7 -1,-1.4 -0.9,-1.4 0.7,0.4 2.3,2.5 5.6,7 5.1,7 -0.3,0 -1.1,-0.9 -1.8,-1.8 z m -9.8,-1.6 c -1.3,-1.6 -2.9,-3.8 -3.7,-5 -0.7,-1.2 -2.6,-3.8 -4.1,-6 -1.5,-2.1 -2.5,-3.7 -2.2,-3.5 0.3,0.2 3.1,3.8 6.3,8 7.4,9.9 7.1,9.4 6.5,9.4 -0.2,0 -1.5,-1.3 -2.8,-2.9 z m -2.9,2 c -0.5,-0.3 -4.6,-6 -8.7,-11.8 -2.1,-3 -4.9,-7.8 -3.8,-6.5 0.5,0.6 1.9,2.4 3.1,4.1 1.2,1.7 3.2,4.4 4.4,6 2.1,2.7 5.9,8.5 5.7,8.5 -0.1,0.1 -0.4,-0.1 -0.7,-0.3 z m -18.9,-1.9 c -0.3,-0.2 -3,-3.9 -6,-8.4 -3,-4.4 -6.4,-9.2 -7.4,-10.7 l -1.9,-2.7 1.7,1.9 c 0.9,1 3.8,4.9 6.4,8.5 2.6,3.6 5.4,7.7 6.4,8.9 1.6,2.3 1.9,3.2 0.8,2.5 z m 1.2,-4.1 c -1.5,-2.2 -4.1,-6.1 -5.8,-8.6 -6.8,-9.9 -6.2,-9.7 1,0.3 5.5,7.7 8.1,11.8 7.8,12.1 -0.3,0.1 -1.6,-1.6 -3,-3.8 z m 25.8,-6.3 c -0.8,-1.1 -1.4,-1.9 -1.3,-1.9 0.1,0 0.9,0.9 1.8,1.9 0.9,1 1.4,1.9 1.3,1.9 -0.1,0.1 -0.9,-0.8 -1.8,-1.9 z m -1.5,-7.1 c -0.6,-0.8 -0.6,-0.8 0.2,-0.2 0.8,0.6 1.1,1 0.7,1 -0.2,0 -0.5,-0.4 -0.9,-0.8 z M 261,392.3 c -1,-1.4 -2.4,-3.3 -3,-4.3 l -1.1,-1.7 1.3,1.5 c 1.7,2 5.3,7 4.9,7 -0.1,0.1 -1.1,-1.1 -2.1,-2.5 z m 20.5,0.5 -0.9,-1.1 1.1,0.9 c 0.6,0.5 1.1,1 1.1,1.1 0,0.4 -0.4,0.1 -1.3,-0.9 z m -22.6,-10 c -0.6,-0.8 -0.6,-0.8 0.2,-0.2 0.5,0.4 0.9,0.7 0.9,0.9 -0.1,0.4 -0.5,0.1 -1.1,-0.7 z m -1.5,-1.9 c -0.6,-0.8 -0.6,-0.8 0.2,-0.2 0.8,0.6 1.1,1 0.7,1 -0.1,0 -0.5,-0.3 -0.9,-0.8 z m -12.1,-4.4 c -0.6,-0.8 -0.6,-0.8 0.2,-0.2 0.5,0.4 0.9,0.7 0.9,0.9 -0.1,0.4 -0.5,0.1 -1.1,-0.7 z m -55.5,37.9 c 0.1,-1 0,-1.1 -2.4,-1.1 h -2.6 l -8.2,-8.3 c -6.7,-6.8 -8.1,-8.5 -7.9,-9.4 0.1,-0.6 1.1,-2.4 2.2,-4.1 1.1,-1.7 2,-3.3 2,-3.7 0,-0.5 0.6,-0.6 2.8,-0.4 1.5,0.2 2.9,0.3 2.9,0.4 0.1,0.1 -0.9,1.6 -2.2,3.5 -2.4,3.3 -3.5,5.2 -3.5,5.7 0,0.2 2.6,0.3 5.8,0.3 5.5,0 5.9,-0.1 6.6,-1.1 0.4,-0.6 2.1,-2.9 3.8,-5.2 l 3,-4.1 1,1.3 c 0.6,0.7 2.2,3.7 3.7,6.6 1.5,2.9 2.8,5.3 3,5.3 0.3,0 4.8,-5.9 4.8,-6.4 0,-0.4 -7.7,-12.4 -9.1,-14.1 -1.2,-1.5 -4.6,-3.1 -3.8,-1.8 0.5,0.7 -0.2,0.6 -1,-0.2 -0.4,-0.4 -1.3,-0.7 -1.9,-0.7 -0.7,0 -1.2,0.3 -1.2,0.7 0,0.4 -0.2,0.7 -0.5,0.7 -0.3,0 -0.4,-0.3 -0.3,-0.7 0.3,-0.8 0,-0.9 -5.2,-1.6 -1.8,-0.2 -3.4,-0.3 -3.5,-0.2 -0.1,0.1 -0.2,1.4 -0.2,2.7 0,1.3 -0.1,2.6 -0.3,2.8 -0.4,0.4 -2,-1.6 -3.1,-4.3 -0.7,-1.7 -1.2,-2.2 -1.7,-2 -0.4,0.2 -1.1,0.3 -1.5,0.3 -1.1,0 -0.4,1.7 1.8,4.7 1,1.4 1.9,2.6 1.9,2.8 0,0.2 -0.8,0.3 -1.7,0.3 -2.3,0 -7.7,-2 -13.9,-5.1 -2.8,-1.4 -5.7,-2.7 -6.4,-2.9 -1.3,-0.3 -1.3,-0.3 -1.4,2.3 l -0.1,2.6 -0.4,-3.1 c -0.2,-1.7 -0.5,-3.2 -0.7,-3.4 -0.1,-0.1 0,-0.6 0.3,-1 0.4,-0.5 0.4,-0.8 -0.1,-1.1 -0.8,-0.5 -5,-1.1 -5.3,-0.7 -0.6,0.6 0.8,1.9 2.2,2.2 1.3,0.2 1.3,0.3 0.3,0.6 -1,0.3 -1.1,0.6 -1.1,3.5 0,1.8 -0.2,3.2 -0.4,3.2 -0.2,0 -1.3,-0.7 -2.5,-1.5 -4.9,-3.6 -2.9,0 9.1,15.7 3.5,4.6 8.5,11.2 11.1,14.5 l 4.6,6.1 7.9,0.3 c 12.6,0.4 13.1,0.4 13.3,-0.9 z m -12,-2.3 c -0.3,-0.4 -0.4,-0.7 -0.1,-0.7 0.3,0 0.6,0.3 0.8,0.7 0.2,0.4 0.2,0.7 0.1,0.7 -0.2,0 -0.5,-0.3 -0.8,-0.7 z m -7.5,-0.5 c -0.2,-0.4 -0.1,-0.7 0.1,-0.7 0.2,0 0.7,0.3 1,0.7 0.5,0.6 0.5,0.7 -0.1,0.7 -0.4,0.1 -0.8,-0.3 -1,-0.7 z m -4,-5.9 c -0.7,-1 -1.1,-1.6 -0.8,-1.4 0.6,0.4 2.7,3.2 2.4,3.2 -0.1,0 -0.8,-0.8 -1.6,-1.8 z m 5.5,0.9 c -0.4,-0.5 -0.9,-1.2 -1.1,-1.6 -0.4,-0.6 -0.3,-0.6 0.4,0 0.8,0.7 2,2.5 1.6,2.5 0,0 -0.5,-0.4 -0.9,-0.9 z m -9.5,-7.7 -1.1,-1.8 1.2,1.4 c 0.7,0.8 1.2,1.6 1.2,1.8 0.1,0.7 -0.1,0.5 -1.3,-1.4 z m 12.8,-3.5 c 1.2,-1 5.4,-5.9 6.4,-7.4 0.2,-0.2 5.6,-0.1 5.9,0.2 0.3,0.3 -5.3,7.6 -5.9,7.8 -0.3,0.1 -2.2,0.3 -4.2,0.4 l -3.6,0.3 z m -15.5,-3 c -0.6,-0.7 -0.7,-1 -0.1,-1 0.4,0 0.8,0.4 1,0.8 0.4,1.2 0.1,1.3 -0.9,0.2 z m -4.2,-0.2 c -0.3,-0.4 -0.5,-0.9 -0.4,-1 0.1,-0.1 0.5,0.1 0.9,0.5 0.3,0.4 0.5,0.9 0.4,1 -0.2,0.1 -0.6,-0.1 -0.9,-0.5 z M 156,387 c -1,-1.2 -1.3,-2 -0.7,-1.6 0.6,0.4 1.7,2.2 1.4,2.2 -0.1,0 -0.4,-0.3 -0.7,-0.6 z m -5.2,-0.9 c -0.5,-0.5 -0.8,-1.1 -0.6,-1.2 0.1,-0.1 0.6,0.3 1.1,1 0.9,1.4 0.7,1.5 -0.5,0.2 z m 31.3,-8.5 c 0,-0.4 0.1,-0.7 0.2,-0.7 0.1,0 0.3,0.3 0.5,0.7 0.2,0.4 0.1,0.7 -0.2,0.7 -0.2,0 -0.5,-0.3 -0.5,-0.7 z m 69.5,36 -0.6,-1.2 -25.3,0.1 -25.3,0.1 -0.2,1.1 -0.2,1.1 h 26 26 z m -96.4,0.2 c 5,-0.2 1.3,-0.4 -13.6,-0.4 -13.3,-0.1 -20.2,0.1 -19.7,0.4 0.8,0.6 22.8,0.6 33.3,0 z m 169.9,-2.9 c 17.3,-1.3 19.4,-2 5.3,-1.7 -10.3,0.2 -25.2,1 -26.6,1.5 -0.4,0.1 -0.5,0.4 -0.3,0.7 0.4,0.7 7.3,0.6 21.6,-0.5 z M 195.4,407 c 0.2,-0.8 0.3,-2.3 0.3,-3.3 0,-1 -0.1,-2.5 -0.3,-3.3 -0.3,-1.3 -0.5,-1.5 -1.7,-1.5 -1.3,0 -1.4,0.1 -1.1,1.1 0.2,0.6 0.3,1.2 0.3,1.3 0,4.6 -0.1,4.9 -1.6,4.9 h -1.5 v -4.1 c 0,-3.8 -0.1,-4.1 -1,-4.4 -1.5,-0.5 -1.9,0.5 -1.9,5.5 0,5.3 0.1,5.5 4.9,5.5 h 3.2 z m 283.8,0.1 2.1,-0.9 -1.9,-0.8 c -4.8,-2 -8.3,-2.8 -8,-1.8 0.1,0.3 4.2,3.5 5.6,4.4 0.1,0 1,-0.4 2.2,-0.9 z m -340.9,-3.2 c 0.1,-3.1 0.2,-3.2 1.3,-3.2 1.1,0 1.2,0.1 1.2,3.2 0,2.9 0.1,3.2 1,3.2 0.9,0 1,-0.2 0.9,-6.7 l -0.1,-6.7 -3.5,-0.1 -3.5,-0.1 v 6.8 c 0,6.1 0.1,6.8 0.9,7 1.4,0.3 1.6,-0.1 1.8,-3.4 z m -0.4,-6.6 c 0,-1.2 0.2,-1.5 1.2,-1.5 0.8,0 1.3,0.3 1.5,1.1 0.5,1.7 0.4,1.8 -1.2,1.8 -1.3,0 -1.5,-0.1 -1.5,-1.4 z m 85.5,9.7 c 0.8,0 0.8,-0.4 0.6,-3.4 l -0.2,-3.4 h 1.8 1.8 v 3.4 c 0,3.3 0,3.4 1.2,3.4 h 1.2 v -7.3 -7.3 h -4.4 -4.4 v 7.6 c 0,6.7 0.1,7.6 0.8,7.3 0.4,-0.2 1.2,-0.3 1.6,-0.3 z m 0.1,-10.2 c 0,-1.4 0.1,-1.5 2.2,-1.5 2.3,0 2.4,0.1 1.9,1.8 -0.2,0.9 -0.6,1.1 -2.2,1.1 -1.8,0.1 -1.9,0 -1.9,-1.4 z m 224.8,8.5 c 5,-2.5 3.6,-2.8 -3.5,-0.8 -3.7,1.1 -6.8,1.6 -10.5,1.8 -7.7,0.4 -5.4,1.2 3.1,1 l 7.1,-0.1 z m -43.5,-2.6 c 0,-0.2 -0.3,-0.8 -0.7,-1.2 -0.8,-0.8 -2.2,-0.9 -25,-2 -8.4,-0.4 -18.3,-1 -22.1,-1.2 -3.7,-0.3 -6.9,-0.3 -7.2,-0.2 -0.2,0.1 -0.4,0.8 -0.4,1.4 0,1.2 -3,0.9 28.7,2.7 16.9,0.9 26.7,1.1 26.7,0.5 z m -294,-1.7 c 1.2,-0.9 0.7,-2.5 -1.2,-3.4 -1.6,-0.8 -3,-0.4 -3.9,1.3 -0.5,0.9 -0.4,1.2 0.5,1.9 1.4,1 3.4,1.1 4.6,0.2 z m 194,-3 c 1.7,-1.7 10,-12 17.7,-22 7.9,-10.3 8.2,-10.7 7.9,-11 -0.1,-0.1 -1.9,0 -4,0.4 -3.4,0.6 -3.9,0.8 -5.3,2.6 -4.1,5.1 -4.4,5.3 -7.2,5.3 h -2.6 l -0.2,-2.9 -0.2,-2.9 -3.8,0.1 c -3.7,0.1 -3.8,0.1 -3.3,-1 0.2,-0.6 0.2,-3.9 0,-7.6 -0.2,-3.6 -0.4,-7 -0.4,-7.6 0,-0.6 -0.4,-1.6 -1,-2.2 l -0.9,-1.1 -1.7,1.7 c -4,3.9 -4.1,4.1 -4.5,14.5 -0.3,9 -0.3,9.4 0.6,9.4 0.5,0 1.4,-0.3 2,-0.8 0.6,-0.4 1.1,-0.6 1.1,-0.4 0,0.4 -10.9,15.5 -12.3,17.1 -1,1.1 -1,1.1 0.4,2.8 l 1.3,1.8 0.8,-1.2 c 0.4,-0.7 2.3,-3 4.2,-5.3 1.9,-2.2 5.5,-6.8 8,-10.1 5.2,-7 6.7,-8.8 7.6,-8.8 0.4,0 0.6,0.5 0.6,1.2 0,1.2 -0.7,2.2 -10.4,16.1 -8.5,12 -8.3,11.7 -6.6,12.7 0.7,0.4 1.1,0.4 1.6,0 1.3,-1.1 6.6,-7.4 12.5,-15 3.9,-5 6.3,-7.7 6.8,-7.7 0.5,0 1.3,-0.1 1.8,-0.3 1.1,-0.4 -0.8,2.9 -4.4,7.9 -4.4,6 -10.5,15.3 -10.3,15.7 0.4,0.6 2.7,0 4.2,-1.4 z m 13.6,-3.9 c 4.3,-5.4 15.8,-20.6 19.7,-25.9 2.9,-4.1 3,-4.5 1,-4.5 -4.1,0 -4.5,0.3 -8.5,5.9 -3.8,5.4 -8.8,12.5 -13.9,19.9 -2.9,4.2 -6.1,9.3 -6.1,9.7 0,0.1 0.8,0.2 1.8,0.2 1.6,0.1 1.9,-0.2 6,-5.3 z m 8.5,1.4 c 6.3,-8 24.5,-32.8 24.2,-33 -0.6,-0.6 -6.1,1 -7,2 -1.8,2 -23.4,33.8 -23.4,34.4 0,0.2 0.5,0.4 1.1,0.6 0.6,0.1 1.2,0.2 1.4,0.3 0.2,-0.1 1.8,-2 3.7,-4.3 z m 15.1,-7.9 c 5.7,-7.7 12.8,-16.7 18.6,-23.9 l 1.5,-1.8 h -1.2 c -0.6,0 -2.2,0.1 -3.5,0.3 -2.2,0.3 -2.4,0.5 -5.9,5 -2,2.6 -5.5,6.8 -7.7,9.4 -4.3,5 -11.8,15.7 -11.3,16.2 0.1,0.1 3.5,-4 7.3,-9.2 3.9,-5.2 7.3,-9.6 7.7,-9.8 0.7,-0.4 0.9,-0.8 -5.2,8.6 -6.5,9.9 -9.9,15.8 -9.9,16.8 0,1 1,-0.2 9.6,-11.6 z m 51.3,8.5 c -2.3,-3.6 -10.5,-14.9 -11.9,-16.4 -1.2,-1.2 -1.6,-1.4 -4.9,-1.4 -2,0 -5.4,-0.2 -7.6,-0.4 l -4,-0.3 -6,8 c -3.3,4.4 -6.2,8.5 -6.5,9.1 -0.7,1.4 -0.3,1.5 5.4,1.9 2.5,0.2 5.7,0.4 7.1,0.5 l 2.6,0.2 v -7.6 -7.6 l 5.2,0.3 c 2.9,0.2 6.1,0.5 7.3,0.6 l 2.1,0.3 v 6.6 c 0,3.6 0.2,6.9 0.4,7.2 0.3,0.5 11.6,1.7 12.2,1.3 -0.1,0 -0.6,-1.1 -1.4,-2.3 z m -14.4,1.1 c -0.5,-0.3 -0.9,-0.8 -0.9,-1.2 0,-0.9 0.6,-0.9 1.4,-0.1 0.5,0.5 0.6,-0.1 0.6,-2.4 0,-2.2 -0.2,-3.1 -0.7,-3.3 -1.1,-0.4 -0.9,-2.2 0.2,-2.5 0.5,-0.1 1,-0.5 1,-0.9 0,-0.6 -4.9,-1.2 -9.8,-1.2 -2,0 -2.4,0.1 -2.4,1 0,0.7 0.3,1 1.1,1 1,0 1.1,0.2 0.9,1.5 -0.2,1.2 -0.3,1.4 -0.7,0.7 -0.9,-1.6 -1.4,-0.7 -1.4,2.4 0,2.5 0.2,3.2 0.7,3.2 0.5,0 0.7,-0.6 0.8,-2.1 l 0.1,-2.1 0.4,1.9 c 0.2,1.1 0.5,2.3 0.7,2.8 0.3,0.7 0,0.9 -1.3,1 -1.3,0.2 -1.2,0.2 0.7,0.3 l 2.3,0.1 v -4.9 -4.9 h 1.7 1.7 v 4.8 c 0,2.6 0.1,4.9 0.3,5.1 0.2,0.2 1,0.3 1.8,0.3 1.4,0 1.5,0 0.8,-0.5 z m -185.7,-2.4 c -1.7,-3 -2.1,-3.2 -3.3,-1.3 -0.6,0.9 -1,1.9 -1,2.2 0,0.5 1.3,0.8 4.3,1 l 1.1,0.1 z m 80.7,-11.5 -0.1,-11.5 -1.1,-0.2 -1.1,-0.2 v 11.2 c 0,10.1 0.1,11.2 0.9,11.7 0.5,0.3 1,0.5 1.2,0.5 0.2,0.1 0.3,-5.1 0.2,-11.5 z m -162.1,8 c 0.9,-1.4 2.9,-2 4.2,-1.3 0.9,0.5 1,0.3 1.5,-1 0.7,-2 1.9,-1.9 3.8,0.3 1.8,2.1 2.4,1.7 2.4,-1.7 0,-2.5 -1.1,-3.8 -3.6,-4.3 -2.1,-0.4 -4.4,0.5 -5.5,2 -0.5,0.8 -1.2,1.1 -2.2,1.1 -1.7,0 -3.8,1.9 -3.8,3.3 0,1 1.2,2.5 1.9,2.5 0.4,0.2 0.9,-0.3 1.3,-0.9 z m 25.5,-11.8 c 1.7,-2.5 3,-4.8 3,-5 0,-0.2 -0.4,-0.5 -1,-0.7 -1.1,-0.3 -1.3,-1.8 -0.3,-1.8 0.5,0 0.8,-0.6 0.9,-1.8 l 0.2,-1.8 4.2,-0.2 4.2,-0.2 -3.2,-5.1 c -7,-11.2 -8.4,-12.6 -11.7,-12.6 -1.7,0 -1.7,0 -1.4,1.8 0.1,1 0.5,8.7 0.9,17 0.3,8.4 0.7,15.2 0.9,15.2 0.1,-0.2 1.6,-2.2 3.3,-4.8 z m 65.3,1.2 c 3.1,-1.1 9.7,-5.4 9.1,-6 -0.4,-0.4 -6.9,2.1 -9.8,3.8 -3.9,2.2 -3.5,3.6 0.7,2.2 z M 378.5,377 c 0,-0.2 -0.5,-0.9 -1.1,-1.6 -1,-1.1 -1.5,-1.3 -5.3,-1.6 -4,-0.3 -4.2,-0.3 -5,0.8 -0.4,0.6 -0.7,1.2 -0.5,1.4 0.1,0.1 2.7,0.5 5.7,0.8 3,0.3 5.6,0.6 5.8,0.6 0.3,-0.1 0.4,-0.2 0.4,-0.4 z m -184.9,-2.2 c -3.4,-2.5 -8.3,-7.6 -10.3,-10.7 -2.6,-4 -2.6,-5.3 0,-2 5.4,7 13.1,13.3 16.2,13.3 1.9,0 6.6,-2.2 10.1,-4.8 l 2.4,-1.8 -3.7,-0.3 c -2,-0.2 -4.8,-0.8 -6.2,-1.3 C 195,364.4 186,356.1 181.2,348 l -2.3,-3.9 -0.3,14.5 c -0.2,8 -0.3,14.6 -0.2,14.7 0.1,0.1 15,2.4 16.1,2.5 0.3,0 -0.1,-0.4 -0.9,-1 z m -27.3,-3.2 c 0.2,-0.7 0.4,-7 0.6,-13.9 l 0.3,-12.5 h -1.7 c -3.9,0 -9.5,-2.2 -18.7,-7.2 -1.3,-0.7 -3.1,-1.6 -4,-1.9 -1.1,-0.4 -1.8,-1 -2.1,-2 -0.4,-1.2 -0.8,-1.5 -2.6,-1.8 -3.9,-0.6 -3.9,-0.3 -0.5,3.9 4.5,5.6 13.6,14.8 17.4,17.7 1.8,1.3 4.9,3.3 6.9,4.3 3.6,1.9 4.9,3.5 2.3,2.9 -2,-0.5 -7.1,-3 -9.5,-4.6 -5,-3.4 -16,-14.6 -20.2,-20.4 -1.2,-1.7 -2.3,-3 -2.4,-3 -0.1,0 -0.2,3 -0.2,6.7 v 6.7 l 2.8,0.6 c 3.8,0.8 6,3.2 11.9,13.2 2.6,4.4 5.5,8.8 6.4,9.8 1.5,1.6 2,1.8 5.4,2.2 7.1,0.9 7.5,0.9 7.9,-0.7 z m 6.1,0.8 c 0,-0.8 -0.8,-2.1 -1.1,-1.8 -0.1,0.1 -0.4,0.7 -0.5,1.3 -0.3,0.9 -0.1,1.1 0.7,1.1 0.5,0 0.9,-0.3 0.9,-0.6 z m 3.6,-5 c 0.2,-1.9 0.5,-3.7 0.6,-4.1 0.1,-0.4 -0.5,0.4 -1.5,1.8 -2,2.9 -2.1,3.3 -1,5.9 0.7,1.6 0.8,1.7 1.1,0.8 0.3,-0.6 0.6,-2.5 0.8,-4.4 z m 197.7,3.4 c -0.9,-0.9 -1.8,-1.7 -2,-1.7 -0.6,0 -2,2.4 -1.6,2.9 0.2,0.3 1.4,0.5 2.8,0.5 h 2.5 z m -98.2,-1 c 0,-0.4 -0.2,-0.7 -0.4,-0.8 -0.2,0 -1.3,-0.1 -2.5,-0.3 -2.3,-0.3 -4.5,0.1 -4.5,0.8 0,0.5 1.7,0.8 5,0.9 1.8,0.1 2.4,0 2.4,-0.6 z m -105,-2.9 c 0,-0.8 -0.2,-1.8 -0.5,-2.2 -0.3,-0.5 -0.5,0.1 -0.5,2.2 0,2.1 0.1,2.7 0.5,2.2 0.2,-0.4 0.5,-1.4 0.5,-2.2 z m 148.2,-3.2 c 0,-1.9 -0.2,-2.3 -1.1,-2.5 -0.6,-0.2 -1.2,-0.2 -1.5,0 -0.5,0.3 -0.5,5.6 -0.1,6.8 0.3,0.7 0.5,0.7 1.5,-0.6 0.9,-1.1 1.2,-2.1 1.2,-3.7 z m -29.5,1.3 c -0.4,-0.9 -3.5,-2.6 -3.5,-2 0,0.1 0.7,1.2 1.6,2.4 1.3,1.8 1.6,2.1 2,1.4 0.2,-0.4 0.2,-1.1 -0.1,-1.8 z m -115.8,0.1 c 0,-0.3 0.4,-1.1 0.9,-1.8 1.4,-2 1.7,-3.7 0.8,-4.1 -1,-0.4 -5.1,0.2 -5.1,0.7 0,0.2 0.2,0.4 0.4,0.4 0.2,0 0.7,1 1,2.3 0.9,3.5 0.9,3.6 1.5,3.3 0.3,-0.1 0.5,-0.5 0.5,-0.8 z m -1,-2.8 c 0,-0.2 -0.1,-0.8 -0.3,-1.2 -0.2,-0.5 0,-0.6 1,-0.5 1.4,0.3 1.5,0.6 0.7,1.5 -0.7,0.8 -1.4,0.9 -1.4,0.2 z m 138.5,1.6 c 0.1,-0.7 -0.1,-1.1 -0.6,-1.1 -0.6,0 -0.8,-0.6 -0.8,-3.3 v -3.3 l 2.6,-0.3 c 1.4,-0.2 3.5,-0.3 4.7,-0.3 2.7,0 3.7,-0.6 4.4,-2.4 0.6,-1.4 0.4,-1.8 -4.6,-10 -4.6,-7.5 -6.1,-9.5 -6.1,-8.1 0,0.2 -0.8,1.4 -1.8,2.7 l -1.8,2.3 0.6,5.4 c 0.3,3 0.8,5.8 1,6.3 0.3,0.5 1.5,1.4 2.8,2.1 l 2.3,1.2 h -2.6 -2.6 l 0.3,3.7 c 0.2,2 0.3,4.4 0.3,5.1 0,1.1 0.2,1.4 0.9,1.3 0.4,-0.2 0.9,-0.7 1,-1.3 z m 17.3,-1.1 2.9,-0.3 -3.3,-3.8 c -1.8,-2.1 -3.5,-3.8 -3.7,-3.8 -0.7,0 -1,2 -0.7,4.1 0.3,1.8 0.2,2.2 -0.7,2.6 -0.5,0.3 -1,0.9 -1,1.3 0,0.6 0.3,0.7 1.8,0.4 1,0 3.1,-0.3 4.7,-0.5 z m -37.3,-12.1 1,-11.1 -1.7,-2.8 -1.7,-2.8 -3.4,5.7 c -1.9,3.1 -4.1,6.9 -5.1,8.2 -0.9,1.4 -1.7,2.8 -1.7,3.1 0,0.3 0.8,2 1.7,3.7 1.8,3.2 3.6,4.9 6.5,6.2 3.5,1.5 3.3,2 4.4,-10.2 z m 49.8,10.2 c 0.2,-0.2 -0.4,-2.6 -1.3,-5.4 -0.9,-2.8 -2.4,-8 -3.5,-11.5 -1,-3.5 -2,-6.4 -2.1,-6.4 -0.4,0 -7.5,13.3 -7.5,14 0,0.4 1.8,2.8 3.9,5.5 l 3.9,4.8 3.2,-0.3 c 1.6,-0.2 3.2,-0.5 3.4,-0.7 z m -77.6,-2.1 c 4.9,-2.6 10.4,-6.5 10.4,-7.3 0,-0.3 -1.8,-3.5 -4,-7.3 -2.6,-4.4 -4.1,-6.6 -4.3,-6.2 -0.4,0.7 -7.2,22.3 -7.2,22.9 0,0.7 0.4,0.5 5.1,-2.1 z m 58,0.2 c -0.1,-0.7 -0.7,-0.9 -4.2,-0.9 -6.3,0 -4.8,1.5 1.7,1.6 2.3,0.1 2.6,0 2.5,-0.7 z m 38.9,0.3 c 0.3,-0.3 0.6,-2 0.6,-3.8 0,-2.9 -0.1,-3.3 -1.1,-3.5 -0.6,-0.2 -1.2,-0.2 -1.3,-0.1 -0.2,0.1 -0.2,1.9 -0.1,4.1 0.1,3.9 0.5,4.6 1.9,3.3 z m -185.4,-3.7 c -0.5,-2.1 -1.1,-2.3 -1.9,-0.7 -1,2 -1,2 0.7,2 1.4,0 1.5,-0.1 1.2,-1.3 z m -2.9,-2.8 c 1,-1.7 1.2,-2.4 0.7,-2.8 -0.7,-0.7 -0.7,-1.5 -0.1,-1.1 0.3,0.2 0,-0.5 -0.5,-1.4 -0.6,-1 -1.2,-1.9 -1.5,-2 -0.2,-0.2 -0.4,1.8 -0.4,4.6 0,2.7 0.1,4.9 0.2,4.9 0.2,0 0.9,-1 1.6,-2.2 z m 5.1,-0.8 c 0,-2.6 -0.1,-2.9 -0.7,-2.4 -0.4,0.3 -0.7,0.9 -0.7,1.4 0,0.8 1.1,4 1.3,4 0,0 0.1,-1.3 0.1,-3 z M 362,350.4 c 0,-1 -1.1,-1.3 -4.7,-1.3 -3.7,0 -4.1,1 -0.6,1.5 4,0.6 5.3,0.5 5.3,-0.2 z m -186.7,-2.9 c 1.6,-2.5 1.4,-3.2 -0.9,-3.2 h -2 l 0.7,1.4 c 0.4,0.8 0.7,1.9 0.7,2.4 0.1,1.4 0.3,1.3 1.5,-0.6 z m 123,-1.3 1,-1.3 -1.3,-1.6 -1.3,-1.6 -0.3,1.9 c -0.2,1.1 -0.4,2.7 -0.4,3.6 0,1.4 0.1,1.6 0.7,1 0.4,-0.4 1.1,-1.3 1.6,-2 z M 282.5,338 c 2.3,-3.8 4.2,-6.9 4.2,-7 0,-0.4 -5.5,-7.8 -5.8,-7.8 -0.9,0 -13.2,9.7 -13.2,10.4 0,0.8 1.5,3.5 6.2,11.1 l 2.2,3.5 1.1,-1.7 c 0.6,-0.9 3,-4.8 5.3,-8.5 z m 43.9,5.8 c 4.1,-7 5.7,-10.2 5.2,-10.6 -0.2,-0.2 -2.6,-2.1 -5.3,-4.2 -2.7,-2.1 -5.5,-4.4 -6.4,-5.2 l -1.5,-1.4 -2.6,3.9 c -1.4,2.2 -2.6,4.2 -2.6,4.6 0,0.3 1.8,3.5 4,7.1 5.8,9.4 6.4,10.3 6.6,10.1 0.1,-0.1 1.3,-2 2.6,-4.3 z m -151.1,-2.4 c 0,-0.6 -2,-3.4 -2.5,-3.4 -0.3,0 -1.4,2.6 -1.4,3.5 0,0.2 0.9,0.4 1.9,0.4 1.2,0 2,-0.3 2,-0.5 z m 127,-1.2 c 0.1,-0.7 0,-5.8 -0.2,-11.5 l -0.5,-10.3 -1.6,-2.4 -1.6,-2.4 -0.3,2.6 c -0.2,1.4 -0.5,6.6 -0.8,11.4 l -0.6,8.9 2,2.4 c 2.4,2.7 3.3,3.1 3.6,1.3 z m -125.7,-4.6 c -0.4,-0.8 -1,-1.5 -1.2,-1.5 -0.8,0 -0.5,1.9 0.6,4 l 1.1,2 0.2,-1.5 c 0,-0.8 -0.3,-2.2 -0.7,-3 z m -5.2,-0.2 c 0,-1 -1,-1.1 -1.8,-0.3 -0.6,0.6 -0.8,3.4 -0.2,4 0.4,0.4 2,-2.5 2,-3.7 z m 137.4,-5.2 c -0.3,-0.7 -0.9,-1.8 -1.4,-2.4 -0.8,-1.2 -0.8,-1.1 -0.9,2.9 v 4.1 l 1.4,-1.7 c 1.3,-1.4 1.4,-1.8 0.9,-2.9 z m -16.2,-1 0.3,-3.6 -1.2,2.2 c -0.6,1.2 -1.2,2.5 -1.2,2.9 0,0.6 1.4,2.7 1.7,2.4 0.1,-0.2 0.3,-1.9 0.4,-3.9 z m 36.3,-9.9 c -1.3,-4.5 -2.5,-8.3 -2.6,-8.4 -0.1,-0.1 -1.5,1.9 -3.2,4.5 l -3.1,4.7 2.3,1.9 c 5.9,5.1 8.9,7.1 9,6.3 0,-0.4 -1,-4.5 -2.4,-9 z m -55,5.4 c 2.5,-1.8 4.7,-3.6 5,-4 0.4,-0.5 -0.3,-1.8 -2.5,-5.2 l -3,-4.6 -2.4,7.8 c -1.3,4.3 -2.5,8.3 -2.6,9 -0.4,1.5 -0.4,1.5 5.5,-3 z m 39.8,-0.6 2.3,-3.7 -3.7,-3.7 -3.7,-3.7 -1.2,1.5 c -2.3,2.8 -2.3,2.6 0.9,8.2 1.7,2.8 3.1,5.2 3.1,5.2 -0.1,-0.1 1,-1.8 2.3,-3.8 z m -22.3,-2.4 c 0.8,-1.9 1.3,-3.6 1.2,-3.8 -0.1,-0.2 -2,0.5 -4.1,1.6 -4.4,2.2 -4.4,2.2 -1.7,5.6 l 1.6,2 0.8,-1.1 c 0.4,-0.4 1.5,-2.4 2.2,-4.3 z m -0.9,-5.2 c 1.2,-0.8 2.4,-2.2 2.8,-3.1 1,-2.3 0.8,-3 -0.3,-1.8 -0.5,0.6 -2.5,2.3 -4.4,3.8 -1.9,1.5 -3.6,3.2 -3.9,3.7 -0.5,0.9 -0.4,0.9 1.6,-0.1 1.1,-0.6 3,-1.7 4.2,-2.5 z m -2.9,-3.4 c 1.5,-1.3 2.5,-2.4 2.3,-2.4 -0.8,0 -10,-1.5 -11.8,-1.9 -1.1,-0.3 -2.1,-0.5 -2.3,-0.5 -0.5,0 0.3,1.4 3.4,5.8 l 2.7,3.8 1.5,-1.3 c 0.9,-0.5 2.7,-2.2 4.2,-3.5 z m 33.6,0.1 c 1.6,-2.4 2.9,-4.4 2.9,-4.6 0,-0.1 -1.5,0.1 -3.3,0.5 -1.8,0.4 -4.6,0.9 -6.1,1.1 -1.6,0.2 -3,0.5 -3.1,0.7 -0.3,0.3 5.7,6.6 6.3,6.6 0.2,0.1 1.6,-1.9 3.3,-4.3 z M 301,308 c -0.3,-0.8 -2.7,-0.9 -2.7,-0.1 0,0.3 0.6,1.5 1.3,2.6 l 1.3,1.9 0.2,-1.9 c 0.1,-0.9 0.1,-2.1 -0.1,-2.5 z m 6.1,2.8 c 0,-0.2 -0.4,-0.8 -1,-1.3 -0.9,-0.9 -1,-0.8 -1,0.4 0,1 0.2,1.3 1,1.3 0.5,0 1,-0.1 1,-0.4 z m 4.4,-3.3 c 0.7,-0.7 1.9,-2.5 2.7,-3.8 1.8,-3 1.6,-3.1 -3,-3.1 -2.8,0 -3.2,0.1 -4.4,1.5 -1.2,1.5 -1.2,1.6 -0.5,2.8 1,1.5 3.2,4 3.6,4 0.3,-0.1 0.9,-0.7 1.6,-1.4 z m -19,0.1 c 0,-1 -3.4,-4.6 -3.4,-3.6 0,0.4 -0.5,1.3 -1,1.9 -0.5,0.6 -1,1.4 -1,1.5 0,0.4 1.3,0.8 3.5,0.8 1.4,0.1 1.9,-0.1 1.9,-0.6 z m 28.5,-0.8 3.7,-0.6 -0.3,-1.8 c -0.3,-2.1 -1.4,-3 -3.5,-3 -1.4,0 -1.7,0.3 -3.3,2.9 -1.9,3.4 -2.1,3.3 3.4,2.5 z m -35.9,-2.9 2.1,-3 -3.8,0.3 c -7,0.6 -7.3,0.7 -7.9,2.3 -1,2.9 -0.7,3 5.3,3.2 2.2,0.1 2.3,0.1 4.3,-2.8 z m 8.7,-3.2 c -0.1,-0.1 -0.9,-0.2 -1.7,-0.1 l -1.5,0.2 1.6,2.3 1.6,2.3 0.2,-2.2 c -0.1,-1.3 -0.1,-2.4 -0.2,-2.5 z m 7.4,2.1 c 0,-2.1 -0.4,-3.2 -1.3,-3.2 -0.4,0 -0.7,0.6 -0.7,1.7 0,0.9 -0.1,2 -0.3,2.4 -0.2,0.6 0,0.8 1,0.8 1.2,-0.1 1.3,-0.3 1.3,-1.7 z m 4.9,-1.9 c 0,-0.2 -0.2,-0.3 -0.5,-0.1 -0.3,0.2 -0.5,0.7 -0.5,1.1 0,0.7 0.1,0.7 0.5,0.1 0.3,-0.4 0.5,-0.9 0.5,-1.1 z m -28.4,-6.2 c 0.4,-0.8 1.9,-2.6 3.3,-3.9 l 2.5,-2.4 -1.6,-3.2 c -0.9,-1.7 -1.8,-3 -2,-2.8 -0.2,0.2 -1,3 -1.8,6.2 -0.8,3.2 -1.7,6.2 -1.8,6.7 -0.7,1.5 0.6,1 1.4,-0.6 z m 44.4,-5.2 c -2.3,-8.5 -2,-8.2 -3.8,-4.7 -0.8,1.7 -1.5,3.2 -1.5,3.5 0,0.3 1.1,1.5 2.5,2.8 1.4,1.3 2.8,3 3.2,3.8 1.3,2.6 1.2,0.5 -0.4,-5.4 z m -37.2,5.2 c 0.4,-0.4 -0.5,-3.9 -1.1,-3.9 -0.2,0 -1.4,1.1 -2.6,2.5 l -2.3,2.5 2.8,-0.3 c 1.5,-0.2 2.9,-0.5 3.2,-0.8 z m 33.6,-1.2 c -1.5,-1.2 -2.8,-2.2 -2.9,-2.2 -0.1,0 -0.3,0.9 -0.3,1.9 0,1.9 0.1,1.9 1.8,2.1 4.3,0.5 4.3,0.5 1.4,-1.8 z m -24.1,0 c 0,-1.1 -1.7,-5.1 -2.1,-5.1 -0.4,0 -4.2,5.3 -4.2,5.8 0,0.3 1.3,0.5 3.2,0.5 3,0 3.1,0 3.1,-1.2 z m 6.8,-43.1 c 0,-24.4 -0.2,-45.9 -0.3,-47.8 l -0.3,-3.4 -0.3,2.4 c -0.2,1.3 -0.5,22.8 -0.7,47.8 l -0.4,45.3 h 1.1 1.1 z m 10.7,43.8 c 0,-0.3 -0.6,-1.2 -1.4,-2.1 -0.8,-0.9 -1.8,-2.3 -2.3,-3.1 l -0.9,-1.5 -1.1,2.3 c -0.6,1.3 -1.2,2.9 -1.4,3.6 l -0.3,1.3 h 3.7 c 2.1,0 3.7,-0.2 3.7,-0.5 z m -23.3,-5 c 1.7,-3 1.7,-3 -0.2,-1.7 -1.3,0.8 -1.8,1.5 -1.8,2.5 0.1,1.8 0.6,1.6 2,-0.8 z m 25,1.3 c 0.2,-0.5 -0.2,-1.2 -1.3,-2.1 -1.9,-1.6 -2.3,-1 -0.8,1.3 1.3,1.8 1.7,2 2.1,0.8 z m -8.5,-5 c 0,-0.5 -0.2,-0.9 -0.5,-0.9 -0.3,0 -0.5,0.6 -0.5,1.2 0,0.7 0.2,1.1 0.5,0.9 0.3,-0.2 0.5,-0.7 0.5,-1.2 z m 10.2,0.6 c 0,-0.5 0.1,-1.4 0.3,-2 0.3,-1 0.2,-1.1 -0.7,-0.9 -1.7,0.4 -1.2,-0.6 1.4,-3.1 1.3,-1.3 2.4,-2.5 2.4,-2.8 0,-0.4 -2.4,-2 -3.1,-2 -0.1,0 -0.1,0.5 0,1.2 0.3,1.6 -0.5,1.5 -1.8,-0.1 -0.6,-0.7 -1.1,-1.2 -1.2,-1.1 -0.9,1.1 -3.2,5.4 -3.2,5.9 0,0.6 4.8,5.7 5.5,5.7 0.3,0 0.4,-0.3 0.4,-0.8 z m -27.6,-1.6 c 1.3,-1.1 2.3,-2.3 2.3,-2.6 0,-0.8 -3.4,-6.6 -3.8,-6.6 -0.2,0 -0.8,0.6 -1.4,1.3 l -1.1,1.3 0.3,-1.3 c 0.3,-1.6 -0.6,-1.8 -2.4,-0.4 l -1.1,0.9 2.8,2.7 c 3.1,2.9 3.4,3.7 1.6,3.7 -0.8,0 -1.1,0.2 -1,0.7 0.1,0.4 0.3,1.1 0.5,1.5 0.4,1.1 0.8,0.9 3.3,-1.2 z m 6.9,-4.4 c 0.6,-2.9 0.3,-3.2 -1.2,-1.4 -1.4,1.6 -1.8,2.9 -1.1,3.6 0.6,0.6 2,-0.7 2.3,-2.2 z m 12.9,1.3 c 0.1,-0.4 -0.6,-1.6 -1.6,-2.6 l -1.8,-1.8 0.3,1.7 c 0.5,3.1 2.6,5 3.1,2.7 z m -13.4,-6.6 c 1.1,-1.6 1,-3.7 -0.2,-5.4 l -1,-1.4 -1.1,1.1 c -0.6,0.6 -1.7,1.6 -2.4,2.2 -0.7,0.6 -1.3,1.3 -1.3,1.5 0,0.2 0.7,1.4 1.5,2.7 0.8,1.3 1.5,2.5 1.5,2.8 -0.1,0.5 1.5,-1.3 3,-3.5 z m 16.3,-3 c -0.6,-0.5 -1.9,-1.5 -2.7,-2.3 l -1.5,-1.3 -1.3,1.6 c -0.7,0.9 -1.3,1.9 -1.3,2.2 0,0.3 1,1.9 2.3,3.6 l 2.3,3 1.7,-2.9 1.7,-2.9 z m 7.1,-1 c -0.8,-1.6 -0.8,-1.6 -1.3,-0.5 -0.4,0.9 -0.3,1.2 0.7,2 1.4,1.2 1.7,0.6 0.6,-1.5 z m -34.7,1.5 c 1,-0.6 1.2,-1.7 0.4,-2.2 -0.6,-0.4 -1.9,1 -1.9,2.1 0,0.8 0.3,0.8 1.5,0.1 z m 5.1,-3.3 c 2.4,-2.1 3.3,-3.4 2.8,-4.2 -0.4,-0.7 -0.8,-0.5 -2.5,1.4 -2.6,2.8 -2.8,5.1 -0.3,2.8 z m 25.4,-0.2 c -0.1,-1.5 -4.1,-5.1 -4.5,-4 -0.2,0.5 0.4,1.6 1.7,2.9 2.3,2.5 2.9,2.7 2.8,1.1 z m 4.5,-0.8 c 0,-0.3 -0.2,-0.5 -0.5,-0.5 -0.3,0 -0.4,0.2 -0.2,0.5 0.2,0.3 0.4,0.5 0.5,0.5 0.1,0 0.2,-0.3 0.2,-0.5 z m -30.7,-9.1 -2.6,-2.9 -0.3,1.7 c -0.5,2.7 -0.4,6.8 0.1,7.9 0.5,1 0.7,0.9 3,-1.5 l 2.5,-2.5 z m 8.1,6.6 c -0.2,-0.4 -0.3,-0.3 -0.3,0.3 0,0.5 0.1,0.8 0.3,0.6 0.2,-0.2 0.2,-0.6 0,-0.9 z m 9.4,0.3 c 0,-0.4 -0.2,-0.8 -0.5,-1 -0.3,-0.2 -0.5,0.1 -0.5,0.7 0,0.6 0.2,1 0.5,1 0.3,0 0.5,-0.3 0.5,-0.7 z m 11.2,-1.1 c 0.3,-1 0.5,-2.4 0.5,-3.1 0,-2.2 -0.6,-5.8 -1,-5.8 -0.2,0 -1.5,1.3 -2.9,3 l -2.6,3 2.4,2.4 c 1.3,1.3 2.6,2.4 2.7,2.4 0.2,-0.1 0.6,-0.9 0.9,-1.9 z m -8.8,-2.6 c 0.2,-0.8 -2.1,-3.8 -2.9,-3.8 -0.6,0 -0.1,2.3 0.9,3.8 0.7,1.2 1.7,1.2 2,0 z m -12.1,-0.4 c 0.3,-0.5 0.5,-1.7 0.5,-2.5 v -1.6 l -1.2,1.6 c -0.7,0.9 -1.2,2 -1.2,2.5 0,1.2 1.3,1.2 1.9,0 z m 15.1,-6.4 c 2.3,-3.9 2.3,-4.3 -0.7,-7.2 l -1.6,-1.5 -2.1,3.2 -2.1,3.2 1.1,1.6 c 1.3,1.8 3.1,4.2 3.2,4.2 0.1,-0.1 1.1,-1.6 2.2,-3.5 z m -16.1,0.5 c 1.1,-1.7 1.5,-2.8 1.3,-3.5 -0.4,-1.4 -3.2,-5.7 -3.8,-5.7 -0.6,0 -3.4,3.9 -3.4,4.8 0,0.7 3.6,6.9 4.1,6.9 0.2,0 1,-1.1 1.8,-2.5 z m 20,-2.1 c 0,-0.8 -0.8,0.4 -1.2,1.7 l -0.3,1.2 0.7,-1.2 c 0.4,-0.7 0.7,-1.5 0.8,-1.7 z m -27,0.6 c -0.4,-0.8 -0.9,-1.4 -1,-1.3 -0.2,0.2 1.2,2.8 1.6,2.8 0.1,0 -0.2,-0.6 -0.6,-1.5 z m -0.7,-5.3 c 0,-0.3 -0.2,-0.5 -0.5,-0.5 -0.3,0 -0.5,0.3 -0.5,0.8 0,0.4 0.2,0.6 0.5,0.5 0.2,-0.2 0.5,-0.6 0.5,-0.8 z m 28.1,-1.3 c -0.2,-1.3 -0.4,-3.3 -0.4,-4.6 0,-1.3 -0.2,-2.3 -0.4,-2.3 -0.2,0 -1.2,0.8 -2.2,1.7 -1.6,1.5 -1.8,1.8 -1.2,2.6 1,1.5 4,4.8 4.3,4.9 0.2,0 0.1,-1 -0.1,-2.3 z m -23.8,-3.6 c 0,-0.5 -3.9,-3.5 -4.2,-3.2 -0.1,0.1 -0.1,1.8 0.1,3.7 l 0.3,3.5 1.9,-1.8 c 1.1,-1 1.9,-2 1.9,-2.2 z m 4.9,2.6 c 0,-1.1 -0.8,-2.4 -1.2,-2 -0.3,0.3 0.7,2.8 1,2.8 0.1,0.1 0.2,-0.3 0.2,-0.8 z m 9.7,-0.4 c 0.5,-0.6 0.5,-0.9 0.1,-1.3 -0.6,-0.6 -0.8,-0.5 -1.3,1 -0.3,1.2 0.3,1.4 1.2,0.3 z m 7.3,-8.5 c 0,-0.2 -0.4,-1 -0.8,-1.7 l -0.8,-1.2 -1.9,3.2 c -2.6,4.5 -2.4,5.1 0.8,2.4 1.5,-1.3 2.7,-2.5 2.7,-2.7 z m -21.6,0.2 -1.8,-3.2 -0.9,1.2 c -0.5,0.6 -0.9,1.3 -0.9,1.5 0,0.7 5,5 5.2,4.4 0.1,-0.4 -0.6,-2.1 -1.6,-3.9 z m 4.9,0.1 c -0.1,-0.4 -0.6,-0.6 -1,-0.4 -0.6,0.2 -0.7,0 -0.7,-1 0,-0.9 0.3,-1.4 1,-1.6 0.5,-0.1 1,-0.7 1,-1.2 0,-1 -1.4,-4.8 -1.9,-5.5 -0.2,-0.2 -1,0.7 -1.9,2 -1.5,2.3 -1.5,2.5 -0.9,4 0.4,0.9 1.1,1.9 1.5,2.3 0.5,0.4 1.3,1.6 1.9,2.7 l 1,2 0.2,-1.4 c 0,-0.6 -0.1,-1.6 -0.2,-1.9 z m 10.2,0.8 c 0.4,-1 1,-2.2 1.4,-2.6 0.3,-0.4 0.9,-1.4 1.2,-2.3 0.6,-1.5 0.5,-1.7 -0.7,-3.5 -0.7,-1.1 -1.5,-1.9 -1.6,-1.9 -0.4,0 -2.5,3.7 -2.5,4.4 0,0.3 0.5,1.3 1.2,2.1 1.4,1.8 1.5,2.2 0.5,2.2 -0.7,0 -1.7,1.8 -1.7,2.9 0,1.3 1.6,0.3 2.2,-1.3 z m 6.1,-6 c -0.3,-0.3 -0.6,-0.4 -0.6,-0.1 0,0.6 0.6,1.2 0.9,0.9 0.2,-0.1 0,-0.5 -0.3,-0.8 z m -24.3,-1.7 c -0.4,-0.8 -0.5,-0.7 -0.5,0.4 0,0.7 0.1,1.4 0.3,1.6 0.6,0.6 0.7,-1.1 0.2,-2 z m 4.3,-3.7 c 0,-0.5 -0.1,-0.9 -0.2,-0.9 -0.4,0 -1.7,2.8 -1.7,3.5 0,1 1.9,-1.6 1.9,-2.6 z m 18,2.1 c 0,-1.1 -1.3,-3.4 -2,-3.4 -0.7,0 -0.5,1.9 0.4,3.2 0.9,1.4 1.6,1.5 1.6,0.2 z m -13.1,-2.2 c 0,-0.4 -0.2,-0.6 -0.5,-0.5 -0.3,0.2 -0.5,0.5 -0.5,0.8 0,0.3 0.2,0.5 0.5,0.5 0.2,-0.1 0.5,-0.4 0.5,-0.8 z m 7.7,-0.1 c 0,-0.2 -0.2,-0.7 -0.5,-1.1 -0.4,-0.6 -0.5,-0.5 -0.5,0.4 0,0.6 0.2,1.1 0.5,1.1 0.3,-0.1 0.5,-0.2 0.5,-0.4 z M 311,222 c -0.4,-0.7 -0.5,-0.7 -1,0.2 -0.4,0.8 -0.3,1.5 0.3,3.4 l 0.8,2.4 0.1,-2.6 c 0.2,-1.5 0.1,-3 -0.2,-3.4 z m -20.7,3.9 c 0.8,-1.2 0.7,-2.7 -0.3,-4.1 -0.7,-1 -0.9,-0.5 -1.3,2.6 -0.3,3 0.3,3.6 1.6,1.5 z m 15.8,-2.8 c 0,-0.6 -0.4,-1.5 -1,-2 -0.9,-0.9 -1,-0.8 -1,0.1 0,1.6 0.9,3.6 1.5,3.3 0.3,-0.2 0.5,-0.8 0.5,-1.4 z m -10.2,-4.8 c 0,-0.5 -0.4,-1.6 -0.8,-2.5 l -0.8,-1.5 -1.4,1.7 c -1.7,2 -1.7,2.3 -0.3,5.1 l 1.1,2.2 1.1,-2 c 0.6,-1.1 1.1,-2.5 1.1,-3 z m 12.9,1.5 c 0.3,-1.1 0,-1.6 -1.4,-3.2 l -1.7,-1.9 v 1.4 c 0,1.7 1.9,5.9 2.4,5.3 0.2,-0.1 0.5,-0.9 0.7,-1.6 z m -16.3,-6.4 c 0.5,-1.1 0.4,-1.7 -0.3,-3.3 -0.5,-1.1 -1,-1.9 -1.2,-1.9 -0.4,0 -1,3.8 -1,6.8 v 2.2 l 0.9,-1.2 c 0.6,-0.7 1.3,-1.9 1.6,-2.6 z m 17.1,-3.8 -0.4,-1.6 -1.1,2.4 -1.1,2.4 1.3,2.2 1.3,2.2 0.1,-3 c 0.3,-1.7 0.1,-3.8 -0.1,-4.6 z m -12.9,2.6 c -0.6,-0.6 -0.8,0.3 -0.5,1.4 l 0.4,1.1 0.2,-1.1 c 0.1,-0.6 0,-1.2 -0.1,-1.4 z m 9.4,-3 c 0.7,0 1.6,-2.8 1.2,-3.9 l -0.4,-1.1 -0.9,1.1 c -0.5,0.6 -0.9,1.6 -0.9,2.3 0,0.9 -0.2,1.1 -0.8,0.8 -0.7,-0.3 -0.7,-0.1 0.1,1.4 0.8,1.5 0.9,1.6 1.1,0.6 0.1,-0.7 0.4,-1.2 0.6,-1.2 z m -11,-0.3 c 0.3,-0.8 -0.8,-3.8 -1.6,-4.3 -0.7,-0.4 -0.7,2.2 0,3.8 0.7,1.4 1.2,1.6 1.6,0.5 z m 1.8,-6.8 V 199 h -2.4 c -2.4,0 -2.4,0 -2.4,1.5 v 1.5 l 1.6,-1 c 2.1,-1.3 2.3,-1.3 1.6,0.4 -0.4,1.1 -0.4,1.7 0.1,2.7 1.1,1.9 1.5,1.4 1.5,-2 z m 7.6,0.8 c -0.1,-0.7 -0.4,-1.8 -0.6,-2.4 l -0.4,-1.2 1.9,1.3 c 2.4,1.6 3.1,1.6 3.1,0.1 0,-0.9 -0.4,-1.4 -1.2,-1.7 -1.9,-0.7 -4,-0.6 -4.3,0.3 -0.8,2 0.1,5.9 1.2,5.3 0.3,-0.3 0.4,-1 0.3,-1.7 z m -8.3,-10.3 c 0.2,-0.3 0.2,-0.6 0.1,-0.7 -0.4,-0.4 -4.7,0.4 -4.7,0.8 -0.1,0.6 4.2,0.5 4.6,-0.1 z m 11.7,-0.1 c -0.1,-0.3 -1.2,-0.7 -2.5,-0.8 -2.4,-0.2 -2.4,-0.2 -2.9,-3.2 -0.1,-0.5 -0.6,-1 -1.2,-1.1 -1,-0.2 -1.1,0 -1.1,2.4 0,1.4 0.1,2.7 0.3,2.9 0.2,0.2 1.9,0.3 3.9,0.3 2.8,0.1 3.7,0 3.5,-0.5 z m -1.4,-21.4 -0.1,-4.5 -1.8,-0.2 -1.8,-0.2 v 4.4 4.4 l 1.6,0.2 c 0.9,0.1 1.8,0.2 2,0.3 0,0.1 0.2,-1.9 0.1,-4.4 z m -10.9,3.3 c 0.2,-0.4 0.3,-2.4 0.3,-4.4 0,-3.5 0,-3.6 -1.1,-3.5 -1,0.1 -1.1,0.5 -1.3,4.4 -0.2,4.1 -0.2,4.3 0.8,4.3 0.5,-0.1 1.1,-0.4 1.3,-0.8 z m 4.7,-3.9 c 0,-3.5 -0.1,-4.6 -0.6,-4.5 -0.8,0.3 -1,2.3 -0.6,6.1 0.4,4.6 1.2,3.6 1.2,-1.6 z m 5.1,-8.5 c -1.4,-1.4 -8.7,-1.3 -10.6,0.1 -0.7,0.5 0.3,0.6 5.2,0.6 5.3,0 6,-0.1 5.4,-0.7 z m 132.9,346.8 c -18.3,-0.4 -83.7,-2.9 -84,-3.3 -0.1,-0.1 0.1,-0.2 0.5,-0.2 0.4,0 2.9,-0.2 5.6,-0.5 2.7,-0.3 11,-0.9 18.4,-1.4 11.8,-0.8 13.8,-1 15.6,-1.9 1.1,-0.6 2,-1.2 2,-1.4 0,-0.2 -13.6,-0.4 -30.3,-0.4 -35.5,0 -55.5,-0.3 -54.9,-0.8 0.4,-0.3 9.7,-0.8 34.2,-1.9 5.7,-0.3 24.4,-0.7 41.4,-1 17,-0.3 31.3,-0.6 31.8,-0.8 0.8,-0.3 0.8,-0.2 -0.1,1.1 -1.9,2.7 -2.8,3.2 -6,3.3 -3.2,0.2 -5.4,0.8 -6,1.7 -0.4,0.6 3.9,0.7 14.2,0.2 6.8,-0.3 6.9,-0.3 6.9,-1.4 0,-1.2 3.5,-5.4 5.8,-7 l 1.4,-1 -2,4.4 c -1.1,2.4 -1.9,4.4 -1.8,4.5 0.1,0.1 2.2,0.1 4.7,0 3.4,-0.1 4.5,-0.4 4.5,-0.9 0,-0.5 -0.7,-0.7 -2.9,-0.7 -2.8,0 -2.9,0 -2.4,-1 0.3,-0.6 2,-2.6 3.8,-4.4 l 3.3,-3.4 1.8,3.8 1.8,3.8 1.4,-2.1 c 0.8,-1.2 1.9,-2.7 2.4,-3.4 l 1,-1.2 v 1.2 c 0,1.7 2.1,10.7 2.4,10.7 0.2,0 0.8,-1.1 1.4,-2.4 0.8,-1.8 1.1,-2.9 0.9,-4.4 -0.3,-2.2 -0.1,-2.4 1.2,-1.2 0.5,0.4 1,0.7 1,0.6 0.1,-0.1 0.7,-1.4 1.5,-2.9 0.7,-1.5 1.9,-3.4 2.7,-4.3 l 1.4,-1.6 -0.4,1.9 c -0.2,1 -0.5,3.4 -0.7,5.3 -0.2,2.8 -0.2,3.2 0.3,2.5 1.8,-2.7 6.2,-8.5 6.7,-8.8 0.4,-0.3 0.5,1.3 0.2,6.5 -0.2,3.9 -0.2,6.8 0.1,6.8 0.2,0 1.2,-1.6 2.1,-3.5 3.3,-6.7 8.2,-14.8 7.1,-11.8 -0.5,1.5 -1.8,13.7 -1.7,15.4 l 0.2,1.6 1.5,-2.9 c 1.8,-3.5 7.9,-12.8 7.9,-12.2 0,0.3 -0.3,3.2 -0.7,6.5 -0.4,3.3 -0.6,6.1 -0.6,6.2 0.1,0.1 1,-1.1 1.9,-2.6 1,-1.5 2.6,-3.9 3.7,-5.1 l 2,-2.3 -0.3,4.1 c -0.3,4.2 0,6.9 0.8,6.4 0.2,-0.1 1.1,-2.1 1.9,-4.3 0.9,-2.2 2.1,-5 2.7,-6.2 l 1.1,-2.2 0.3,5.3 c 0.5,7.8 0.4,7.6 1.8,4.6 1.4,-3.1 5.7,-9.9 6,-9.6 0.1,0.1 0,0.9 -0.3,1.6 -0.3,0.8 -1.1,3.3 -1.7,5.7 l -1.1,4.3 h 1.6 c 1.4,0 1.9,-0.4 3.9,-3.2 2.4,-3.3 3.2,-4.1 2,-1.8 -0.4,0.7 -0.9,2.2 -1,3.2 l -0.3,1.8 h 6.1 c 3.4,0 6.1,0.2 6.1,0.4 0,0.6 -13.9,3.2 -24.8,4.7 -17.1,2.3 -37.7,3.8 -48.6,3.6 -2.2,-0.2 -7,-0.3 -10.4,-0.3 z m -17.5,-9.7 c 0,-0.4 1.4,-2.2 3.2,-4 l 3.2,-3.3 -2.1,4 c -1.7,3.2 -2.3,4 -3.2,4 -0.6,0.1 -1.1,-0.2 -1.1,-0.7 z M 89.5,484.3 c -3.5,-0.2 -7.2,-0.4 -8.3,-0.5 l -1.9,-0.1 2.4,-0.4 c 5.3,-0.8 23.9,-1.1 33.8,-0.5 5.5,0.3 10.1,0.8 10.3,1 0.4,0.4 -18.7,1.1 -25.9,0.9 -2.2,0 -6.9,-0.2 -10.4,-0.4 z m 401,0.1 c -2.7,-0.2 -5.1,-0.5 -5.2,-0.6 -0.2,-0.2 3.5,-0.5 8.2,-0.7 9.5,-0.4 23,0.1 22.3,0.8 -0.6,0.6 -18.7,0.9 -25.3,0.5 z m -20,-6.9 c 7.1,-0.7 31.2,-1.1 41.6,-0.7 16.9,0.6 8.4,1.1 -20.1,1.1 -13.9,0 -23.6,-0.2 -21.5,-0.4 z M 374.1,416 c -0.9,-0.7 -3.8,-2.5 -6.3,-4.1 -7.7,-4.8 -8,-5.6 -0.5,-1.2 6.5,3.9 10.2,6.5 9,6.5 -0.3,0 -1.3,-0.5 -2.2,-1.2 z m 3.1,-3.4 c -3.8,-2.5 -6.9,-4.7 -6.9,-4.8 0,-0.2 1,0.4 9.8,5.4 3.9,2.2 6,4.1 4.8,4.1 -0.5,-0.1 -3.9,-2.2 -7.7,-4.7 z m 9.6,0.2 c -7.9,-4.9 -9.7,-6.4 -4.6,-3.6 5.9,3.2 12.3,7 12.6,7.5 0.8,1.3 -1.5,0.2 -8,-3.9 z m 14.8,3.7 c -0.5,-0.4 -3.5,-2.2 -6.7,-4.2 -3.1,-1.9 -5.7,-3.6 -5.7,-3.8 0,-0.1 0.7,0.2 1.6,0.7 0.9,0.5 3.8,2.2 6.6,3.8 2.7,1.6 5.2,3.1 5.5,3.5 0.7,0.9 0,0.9 -1.3,0 z m 4.9,-2 c -2.4,-1.5 -4.2,-2.7 -4,-2.7 0.6,0 7.3,3.9 8.1,4.7 1.1,1.1 0.5,0.8 -4.1,-2 z m 23.4,0.4 c -2.3,-1.2 -4.2,-2.3 -4.1,-2.5 0.2,-0.2 6.5,2.9 7.8,4 1.7,1.3 0.8,0.9 -3.7,-1.5 z m -14.3,0.3 c -1.7,-1.1 -2.2,-1.8 -0.7,-1 1.1,0.6 2.9,2 2.6,2 -0.2,0 -1,-0.4 -1.9,-1 z M 239.1,341.4 c -1.4,-0.8 -2.6,-1.6 -2.6,-1.7 0,-0.3 4.3,2.1 5.1,2.8 0.9,0.7 0.1,0.4 -2.5,-1.1 z M 269,176 c -0.4,-0.6 -1.5,-2.7 -2.3,-4.5 -1.5,-3.3 -1.6,-3.6 -1.6,-9.2 0,-6.4 0.7,-9.1 3.7,-13.5 1.7,-2.5 2.4,-2.7 3.9,-1.3 l 1,1 -1.4,2.5 c -1.5,2.7 -2.8,6.3 -3.2,9.4 -0.4,2.8 0.9,8.4 2.7,11.9 1.7,3.3 1.6,4.4 -0.7,4.7 -1,0.1 -1.6,-0.2 -2.1,-1 z m 58.9,0.4 c -1.2,-0.9 -1.1,-1.1 1,-5.5 1.8,-3.7 1.8,-4 1.8,-9.2 0,-5.2 -0.1,-5.5 -1.8,-9.2 -2.1,-4.4 -2.2,-4.9 -0.8,-5.7 1.4,-0.8 2.2,-0.3 3.9,2.3 4.6,7.3 4.6,18.2 -0.2,25.3 -1.8,2.6 -2.6,3 -3.9,2 z m -51.8,-5.8 c -2.1,-2.3 -2.8,-4.3 -2.8,-8.4 0,-3.4 0.2,-4.3 1.5,-6.8 1.6,-3.1 3.2,-4 4.4,-2.4 0.5,0.7 0.4,1.3 -0.6,3.3 -1.6,3.5 -1.6,7.9 0,11.4 0.9,2 1.1,2.8 0.7,3.3 -0.8,1 -2.1,0.9 -3.2,-0.4 z m 44.6,0.4 c -0.5,-0.6 -0.4,-1.2 0.5,-3.2 1.6,-3.5 1.6,-8 0,-11.5 l -1.2,-2.6 1.2,-0.9 c 1.6,-1.2 1.7,-1.2 3.1,0.7 2.8,3.6 3.3,10.4 1.1,14.7 -1.8,3.5 -3.4,4.4 -4.7,2.8 z m -37.9,-5.1 c -1.3,-1.3 -1.5,-4.3 -0.4,-7 0.4,-1.1 0.8,-1.3 1.8,-1.2 1.3,0.1 1.3,0.2 1.3,4.2 0,3.3 -0.1,4.1 -0.8,4.5 -0.7,0.4 -1.2,0.2 -1.9,-0.5 z m 32.7,0.6 c -0.8,-0.5 -1.7,-7.5 -1,-8.3 0.7,-0.9 2.2,-0.7 3,0.5 1.4,2 0.6,8.2 -1.1,8.1 -0.2,0.1 -0.6,-0.1 -0.9,-0.3 z m -16.4,-48.1 c -0.2,-0.2 -0.3,-0.9 -0.3,-1.7 0,-1.1 0.2,-1.4 1.2,-1.4 1,0 1.2,0.2 1.2,1.4 0,0.8 -0.3,1.5 -0.8,1.7 -0.9,0.4 -0.9,0.4 -1.3,0 z m -0.1,-6.5 c -0.2,-0.3 -0.1,-0.8 0.2,-1.1 0.7,-0.7 2.2,-0.1 1.9,0.7 -0.3,0.9 -1.6,1.1 -2.1,0.4 z" />
</g>
<rect
   x="-0.48681486"
   y="464.50897"
   class="st0"
   width="456"
   height="76"
   id="rect1" /><path
   d="m 14.813187,473.90898 -0.3,0.5 0.4,0.8 -0.3,1.2 v 1.2 l 0.3,0.7 v 0.9 l -0.4,1.1 0.4,1.4 -0.1,0.9 v 1.7 l -0.1,0.5 v 2.8 l -0.1,0.6 v 1.6 l 0.2,1.5 -0.4,1.2 h -0.4 l -0.9,0.5 -1.3,-0.1 -0.7,-0.7 v -0.9 l -0.1,-0.6 v -1.3 l 0.1,-0.5 -0.3,-0.8 0.2,-1.7 -0.1,-0.2 -0.1,-1.2 0.1,-1.1 0.3,-0.6 v -0.8 l -0.3,-1 0.2,-1.5 -0.1,-1.5 0.2,-0.3 -0.1,-1.2 -0.1,-0.3 v -1 l 0.2,-1.2 -0.3,-1.2 0.6,-1.9 -0.2,-0.4 -0.4,-0.3 -0.7,0.1 -0.6000003,0.2 h -1.3 l -1.2,0.2 -1.4,-0.3 -1.3,0.1 -1,-0.1 -0.7,-0.2 -0.1,-0.8 0.1,-0.4 v -1 l 0.3,-0.7 1.1,-0.2 1.4,0.2 0.4,-0.2 1.1,0.1 0.7,0.2 1.2,-0.1 1,-0.3 2.6000003,0.2 1.4,-0.1 1,0.2 0.4,0.2 1.4,-0.2 h 0.9 l 1.6,-0.3 1.2,0.2 h 1.7 l 0.6,0.3 0.3,0.4 0.4,0.9 -0.1,1.3 -0.4,0.3 -2,0.1 -1.2,-0.2 -0.8,0.2 -0.6,-0.1 -0.6,0.2 -1.3,-0.2 -1.1,-0.4 -0.4,0.1 -0.3,0.4 0.3,0.7 0.2,0.9 z"
   id="path2" /><path
   d="m 48.213187,491.60898 -0.3,0.8 v 0.4 l -2.6,0.3 h -8.9 l -0.1,0.1 -1.6,-0.1 -0.4,-0.3 h -1.5 l -0.9,-0.8 0.3,-1.1 -0.2,-1.2 0.1,-0.7 -0.2,-1.2 v -0.3 l -0.1,-1.2 0.3,-0.7 -0.2,-1.3 v -2.6 l -0.3,-0.5 v -1 l 0.3,-1.5 0.1,-1.2 -0.2,-0.8 0.2,-1.7 -0.2,-1 0.1,-0.9 v -1.5 l -0.1,-0.5 0.1,-1.5 -0.2,-0.2 1.2,-1.6 h 1.1 l 1.6,0.3 1.3,-0.1 0.8,-0.3 1.8,0.1 h 2.1 0.3 0.8 l 1.4,-0.2 2.9,0.2 1.2,0.7 0.1,0.8 -0.4,1.3 -0.2,0.1 -1.2,0.4 -1.7,-0.1 -1.2,0.1 h -0.5 -0.8 l -0.7,-0.1 -0.6,0.1 -0.8,-0.1 h -2 l -0.2,-0.1 h -1.6 l -0.6,-0.1 -0.6,0.5 0.1,0.5 0.4,1 0.1,1 -0.2,2.2 -0.3,0.7 v 1.6 l 0.3,0.5 0.7,0.2 1.6,-0.4 1.4,0.1 h 1.7 l 1.4,-0.2 0.8,0.1 h 0.8 l 0.8,-0.1 1.2,0.5 0.5,0.4 v 0.8 l 0.1,0.4 -0.2,0.6 -0.3,0.3 -1.6,0.3 -0.9,-0.1 -1,-0.2 -1.2,0.4 -1.4,-0.1 -0.4,0.2 h -1.6 l -1.2,-0.4 -1.2,-0.2 -0.4,0.2 -0.1,0.4 v 0.7 l 0.4,0.8 v 1.8 l -0.1,1.2 v 1.3 l -0.3,0.5 0.2,1.1 -0.3,0.5 0.7,0.4 0.6,-0.1 1.2,-0.4 1.7,0.2 2,-0.4 1.6,0.4 h 0.6 l 1.4,0.2 1.3,-0.3 1.2,0.1 0.7,0.8 0.1,0.6 z"
   id="path3" /><path
   d="m 75.013187,491.60898 -0.3,0.8 v 0.4 l -2.6,0.3 h -8.9 l -0.1,0.1 -1.6,-0.1 -0.4,-0.3 h -1.5 l -0.9,-0.8 0.3,-1.1 -0.2,-1.2 0.1,-0.7 -0.2,-1.2 v -0.3 l -0.1,-1.2 0.3,-0.7 -0.2,-1.3 v -2.6 l -0.3,-0.5 v -1 l 0.3,-1.5 0.1,-1.2 -0.2,-0.8 0.2,-1.7 -0.2,-1 0.1,-0.9 v -1.5 l -0.1,-0.5 0.1,-1.5 -0.2,-0.2 1.2,-1.6 h 1.1 l 1.6,0.3 1.3,-0.1 0.8,-0.3 1.8,0.1 h 2.1 0.3 0.8 l 1.4,-0.2 2.9,0.2 1.2,0.7 0.1,0.8 -0.4,1.3 -0.2,0.1 -1.2,0.4 -1.7,-0.1 -1.2,0.1 h -0.5 -1 l -0.7,-0.1 -0.6,0.1 -0.8,-0.1 h -2 l -0.2,-0.1 h -1.6 l -0.6,-0.1 -0.6,0.5 0.1,0.5 0.4,1 0.1,1 -0.2,2.2 -0.3,0.7 v 1.6 l 0.3,0.5 0.7,0.2 1.6,-0.4 1.4,0.1 h 1.7 l 1.4,-0.2 0.8,0.1 h 0.8 l 0.8,-0.1 1.2,0.5 0.5,0.4 v 0.8 l 0.1,0.4 -0.2,0.6 -0.1,0.3 -1.6,0.3 -0.9,-0.1 -1,-0.2 -1.2,0.4 -1.4,-0.1 -0.4,0.2 h -1.6 l -1.2,-0.4 -1.2,-0.2 -0.4,0.2 -0.1,0.4 v 0.7 l 0.4,0.8 v 1.8 l -0.1,1.2 v 1.3 l -0.3,0.5 0.2,1.1 -0.3,0.5 0.7,0.4 0.6,-0.1 1.2,-0.4 1.7,0.2 2,-0.4 1.6,0.4 h 0.6 l 1.4,0.2 1.3,-0.3 1.2,0.1 0.7,0.8 0.1,0.6 z"
   id="path4" /><path
   d="m 87.113187,479.20898 0.3,1.6 -0.4,0.6 0.4,1.7 -0.1,0.6 v 2 l 0.1,0.3 v 2.8 l -0.3,0.7 0.3,1.9 -0.4,1.5 -1.4,0.3 h -1.2 l -0.3,-0.4 -0.3,-1.5 v -1 l 0.2,-0.4 v -1.6 l -0.2,-0.9 0.1,-1.3 -0.2,-1.7 -0.3,-0.9 0.3,-1.3 h 0.1 v -1.9 l -0.1,-0.5 0.2,-0.5 -0.1,-1.2 0.2,-0.8 -0.2,-0.8 v -2.6 l 0.1,-1.2 -0.1,-0.9 0.2,-0.3 v -2.2 l 0.4,-0.7 1.7,-0.6 h 0.2 1.1 l 0.8,0.1 0.8,1 0.5,0.9 0.5,0.6 0.1,1.5 0.5,0.6 0.1,0.9 0.2,1.1 0.3,0.7 0.4,0.7 0.4,0.9 0.3,1.6 0.3,0.8 0.7,1.8 0.4,0.2 v -0.7 l 0.2,-0.5 v -0.7 l 0.5,-1 v -0.8 l 0.5,-0.8 0.1,-0.7 0.4,-1.9 0.4,-0.9 -0.1,-0.5 0.6,-1.2 v -0.4 l 0.6,-1.1 0.6,-1.3 0.5,-0.6 0.9,-0.5 1.099993,0.1 0.6,-0.1 1.2,0.4 0.5,1.1 0.2,0.8 -0.2,1.1 0.2,1.5 -0.2,1.3 0.2,0.9 -0.2,0.8 0.4,1.2 -0.3,2 -0.3,0.6 0.3,1.5 v 1.7 l 0.2,0.5 -0.2,1.1 0.1,0.4 -0.2,1.7 0.1,1.2 v 3 l -0.4,2.2 -0.5,0.4 h -1.3 l -1.099993,-0.2 -0.1,-1.5 0.1,-0.7 0.3,-1.7 -0.2,-1.2 v -1.1 l -0.1,-1.2 v -2.1 l 0.2,-0.3 v -1.9 l -0.3,-0.7 v -1.7 -0.3 -2 l 0.3,-1.3 v 0 l 0.199998,-2.7 -0.399998,0.1 -0.5,1.8 -0.4,1.1 -0.6,1.5 v 0.9 l -0.7,1.2 -0.6,1.3 -0.1,1 -0.6,1.5 v 0.8 l -0.7,1.3 -0.8,0.9 h -0.8 l -1.1,-0.1 -0.6,-0.5 -0.4,-0.6 -0.2,-0.9 0.1,-0.7 -0.4,-0.8 -0.2,-0.9 -0.5,-0.9 -0.2,-0.7 -0.4,-0.8 0.1,-0.4 -0.5,-0.9 -0.8,-1.9 -0.3,-1.3 v -0.3 l -0.5,-1.1 -0.4,0.3 v 1 l 0.4,0.3 -0.2,1.7 v 1.7 l 0.1,0.6 z"
   id="path5" /><path
   d="m 120.61318,467.50898 0.8,-0.1 0.4,0.1 1.7,0.3 1.7,0.8 0.6,0.4 0.2,0.4 1.5,1.4 0.5,0.8 0.8,1.9 v 0.3 l 0.8,1.3 0.3,1.5 -0.1,1 v 0.9 l 0.2,0.6 -0.2,1.4 0.3,1 -0.1,0.7 -0.4,1.1 0.2,2.1 -0.9,1.8 -0.4,1.4 -0.4,0.7 -0.6,0.7 -0.4,0.9 -0.6,0.4 -1.7,1.3 -0.6,0.1 -0.4,0.3 -1.1,0.3 -0.4,0.2 -0.5,-0.1 -2.1,0.1 -1.5,-0.2 -0.8,-0.3 -0.8,-0.1 -0.2,0.1 -1.7,-1.1 -0.7,-0.2 -0.6,-0.9 -0.3,-0.1 -0.6,-1 -0.8,-1.3 -0.5,-2.1 -0.4,-1.2 -0.2,-1.5 -0.3,-1.6 0.4,-1.4 -0.2,-0.8 -0.1,-1.2 0.2,-1 0.3,-0.6 v -1.6 l 0.8,-1.5 0.3,-1.2 0.3,-0.8 0.4,-0.5 0.8,-1.4 0.4,-0.1 1.1,-1 h 0.3 l 1.6,-1.1 0.8,-0.2 1,-0.1 1.7,-0.1 z"
   id="path6" /><path
   d="m 147.31318,467.50898 0.8,-0.1 0.4,0.1 1.7,0.3 1.7,0.8 0.6,0.4 0.2,0.4 1.5,1.4 0.5,0.8 0.8,1.9 v 0.3 l 0.8,1.3 0.3,1.5 -0.1,1 v 0.9 l 0.2,0.6 -0.2,1.4 0.3,1 -0.1,0.7 -0.4,1.1 0.2,2.1 -0.9,1.8 -0.4,1.4 -0.4,0.7 -0.6,0.7 -0.4,0.9 -0.6,0.4 -1.7,1.3 -0.6,0.1 -0.4,0.3 -1.1,0.3 -0.5,0.2 -0.5,-0.1 -2.1,0.1 -1.5,-0.2 -0.8,-0.3 -0.8,-0.1 -0.2,0.1 -1.7,-1.1 -0.7,-0.2 -0.6,-0.9 -0.3,-0.1 -0.6,-1 -0.8,-1.3 -0.5,-2.1 -0.4,-1.2 -0.2,-1.5 -0.3,-1.6 0.4,-1.4 -0.2,-0.8 -0.1,-1.2 0.2,-1 0.3,-0.6 v -1.6 l 0.8,-1.5 0.3,-1.2 0.3,-0.8 0.4,-0.5 0.8,-1.4 0.4,-0.1 1.1,-1 h 0.3 l 1.6,-1.1 0.8,-0.2 1,-0.1 1.7,-0.1 z"
   id="path7" /><path
   d="m 169.31318,486.50898 v 2.7 l 0.3,0.8 -0.4,1.7 v 0.2 l -0.1,0.9 -1.5,0.3 -0.7,-0.1 -1.3,-0.8 0.2,-1.2 -0.2,-1.2 -0.1,-0.2 0.3,-0.9 -0.1,-1.4 -0.2,-0.5 -0.1,-0.8 0.4,-0.8 -0.3,-2.2 h 0.2 l -0.2,-1.7 v -2.3 l -0.3,-0.8 0.3,-1.1 v -1.8 l -0.1,-0.5 -0.1,-0.9 0.1,-0.9 0.3,-0.8 -0.2,-1.4 -0.1,-0.3 0.4,-1.3 0.6,-0.8 0.7,-0.2 1.1,-0.2 h 1.8 l 0.3,0.1 1.2,-0.1 0.4,-0.1 1.7,0.4 h 1.5 l 1.2,0.5 1.4,0.1 1.6,0.8 1.1,0.9 0.5,0.2 1,1.1 0.3,0.7 0.1,0.7 0.2,0.5 v 0.6 l 0.6,0.8 -0.4,1.6 0.2,0.7 -0.7,1.3 -0.5,1.2 -0.7,0.6 -0.5,0.8 -0.6,0.1 -1.2,0.8 -1.3,0.5 -1.1,0.1 v 0.5 l 0.6,0.4 1.2,1.4 1.2,1.5 0.3,0.7 0.5,0.5 0.5,0.8 0.8,0.8 0.4,0.7 1.4,1.4 0.3,0.8 -0.1,0.6 -1.4,0.3 -1.2,-0.2 -1.1,-0.2 -1.6,-1.3 -0.4,-0.8 -1,-1.1 -1.2,-2.1 -0.4,-0.3 -0.5,-0.9 -0.5,-0.7 -0.2,-0.1 -0.8,-1.2 0.1,-0.6 -0.6,-0.3 -0.5,0.3 -0.7,0.1 -2,-0.4 -0.4,0.4 0.4,0.8 0.2,0.8 z"
   id="path8" /><path
   d="m 196.01318,487.10898 0.1,0.7 0.2,0.6 -0.3,1 0.4,0.6 -0.3,1.7 -0.9,1.3 -1.2,0.1 -0.8,-0.1 -0.4,-0.3 -0.3,-1.4 v -2.6 l -0.1,-0.8 0.4,-0.8 -0.3,-1.3 0.2,-0.4 -0.3,-1.3 v -2.2 l 0.2,-0.4 -0.1,-1.5 v -1.9 l -0.2,-0.8 0.1,-1.1 v -0.7 l 0.4,-2.4 -0.2,-0.8 0.3,-0.6 -0.3,-2.5 0.4,-0.7 0.2,-0.2 1.8,-0.3 0.3,0.4 0.9,0.7 0.2,0.5 -0.1,1.2 0.2,0.7 -0.3,1.1 0.4,0.8 -0.2,1.3 -0.1,1.4 -0.2,0.7 0.2,1.1 -0.1,1.2 0.4,0.7 0.8,-1.1 0.6,-0.5 0.6,-1.1 0.9,-0.7 0.6,-0.7 v -0.4 l 1.2,-0.9 0.3,-0.4 1.1,-1.2 1.6,-1.8 0.7,-0.5 0.2,-0.8 1,-0.8 0.4,-0.1 0.8,-0.5 1.4,-0.2 1.2,0.2 0.2,0.7 -0.5,0.6 -0.4,0.8 -0.4,0.3 -0.8,0.8 -0.4,0.3 -1,1.1 -0.7,1 -0.9,0.8 -0.6,0.9 -0.4,0.5 -0.3,0.6 -1,0.8 -1.3,0.8 -0.1,0.5 0.5,0.2 0.9,0.9 0.9,1.1 0.8,1.2 0.4,1 0.5,0.5 0.6,1.1 0.7,0.6 0.4,0.1 0.6,1.1 0.1,0.4 0.8,1 1,1.3 0.6,0.6 0.4,1 0.2,0.2 0.5,1.2 -0.4,0.6 -1.4,0.1 -1.2,-0.1 -0.8,-0.4 -1,-1.1 -0.5,-1 -0.9,-0.9 -0.3,-0.5 -0.8,-0.8 v -0.4 l -0.9,-1.1 -0.8,-0.8 -0.9,-1.8 -0.7,-0.7 -0.8,-0.9 -0.2,-1 -0.4,-0.7 -0.6,0.1 -0.2,0.7 -1.3,1.4 -1,0.5 -0.2,0.3 -0.5,0.4 0.1,0.8 0.5,0.8 z"
   id="path9" /><path
   d="m 221.31318,489.40898 -0.2,1.1 0.1,0.1 -0.7,1.3 -0.5,0.6 -0.8,0.3 -0.9,0.3 -1,-0.2 -0.6,-1.8 0.7,-1.2 0.2,-0.7 0.2,-0.4 0.3,-1.1 0.3,-0.6 0.7,-2.1 0.3,-0.5 v -0.3 l 0.6,-1.7 0.3,-1 0.8,-1.5 -0.1,-1.1 1.1,-1.8 0.1,-1.1 0.2,-0.2 0.4,-1.6 0.8,-1.8 v -0.9 l 1.1,-1.7 0.4,-1.2 0.5,-0.6 1.5,-0.1 1.3,0.1 0.5,0.3 0.5,0.7 0.8,1.4 0.5,2.2 0.2,0.5 0.4,0.5 0.5,1.8 0.3,0.4 0.4,1.6 -0.1,0.6 0.7,1.2 0.2,0.8 0.4,0.7 h 0.4 l 0.3,1.6 v 0.5 l 0.6,1.3 0.9,2.4 v 0.4 l 0.7,1.8 0.2,0.8 0.5,1.1 -0.2,0.3 0.3,1 -0.4,0.8 -0.8,0.2 -0.1,-0.2 h -1.1 l -0.1,-0.2 -0.7,-0.4 -0.5,-1 -0.8,-0.6 v -1.2 l -0.4,-0.9 v -0.7 l -0.2,-0.4 -0.6,-0.4 -1.5,0.4 -1.1,-0.1 -0.2,-0.2 -1.2,-0.1 -1.5,0.4 h -1.4 l -0.4,0.2 -1,-0.5 -0.9,-0.1 -0.5,0.4 -0.2,0.5 v 1.1 z"
   id="path10" /><path
   d="m 275.91318,479.10898 0.4,1.6 -0.1,1.1 0.1,0.2 0.1,1.5 -0.1,0.9 -0.4,1.1 0.2,0.8 v 3.2 l -0.1,1.3 0.2,0.4 -0.4,1.5 -1.3,0.4 -1.3,-0.4 -0.3,-0.3 -0.1,-1 0.1,-1.3 -0.1,-0.4 0.1,-0.8 -0.3,-1.2 0.2,-0.8 v -5.6 l 0.1,-0.1 -0.2,-0.9 0.2,-1 -0.1,-1.5 0.4,-0.5 -0.4,-1.4 v -1.6 l -0.1,-1.4 0.4,-1.9 -0.5,-1 0.5,-1.4 1.2,-0.9 0.8,0.1 1.6,0.1 1.1,0.5 0.4,0.6 0.4,0.8 0.3,1.2 0.3,0.6 0.8,1.8 0.2,0.8 0.4,1 v 0.4 l 0.7,1.2 0.1,0.4 0.7,1 0.1,1 0.4,0.8 0.9,2.1 v 0.7 l 0.6,0.8 0.1,1.1 h 0.2 v 0.7 l 0.4,1.5 0.8,1.2 v 0.2 h 0.4 l -0.1,-0.9 -0.2,-1.8 -0.2,-1.7 -0.2,-2.1 0.2,-0.5 v -2.4 l -0.3,-1.6 0.4,-1.7 -0.2,-1.7 0.2,-1 -0.1,-0.6 v -1.4 l 0.2,-0.2 -0.3,-1.3 0.5,-1.2 0.7,-0.4 0.9,-0.1 0.8,0.3 0.4,0.5 -0.1,2 0.1,0.9 v 0.8 l 0.1,0.4 -0.2,0.9 v 1.5 l 0.4,0.8 -0.4,2.3 0.1,1.2 -0.2,0.4 0.2,1.4 0.2,1.1 -0.2,2 v 3.5 l -0.1,1 0.2,1.3 -0.2,0.8 -0.1,1.2 -0.2,0.7 -0.9,0.2 h -3.3 l -0.6,-0.3 -0.2,-0.5 -0.6,-2.1 -0.4,-0.9 -0.4,-1.2 -0.3,-0.5 -0.4,-1.5 -0.3,-0.8 -0.5,-1 -0.1,-0.5 -0.4,-0.7 -0.4,-1.3 v -0.9 l -0.7,-1.1 h -0.4 l -0.3,-2.1 -0.6,-0.8 -0.3,-2.1 -0.5,-0.5 -0.2,-0.8 -0.5,-0.1 0.1,0.8 -0.1,1 0.2,0.4 -0.2,1.7 0.4,1.4 z"
   id="path11" /><path
   d="m 315.91318,491.60898 -0.3,0.8 v 0.4 l -2.6,0.3 h -8.9 l -0.1,0.1 -1.6,-0.1 -0.4,-0.3 h -1.5 l -0.9,-0.8 0.3,-1.1 -0.2,-1.2 0.1,-0.7 -0.2,-1.2 v -0.3 l -0.1,-1.2 0.3,-0.7 -0.2,-1.3 v -2.6 l -0.3,-0.5 v -1 l 0.3,-1.5 0.1,-1.2 -0.2,-0.8 0.2,-1.7 -0.2,-1 0.1,-0.9 v -1.5 l -0.1,-0.5 0.1,-1.5 -0.2,-0.2 1.2,-1.6 h 1.1 l 1.6,0.3 1.3,-0.1 0.8,-0.3 1.8,0.1 h 2.1 0.3 0.8 l 1.4,-0.2 2.9,0.2 1.2,0.7 0.1,0.8 -0.4,1.3 -0.2,0.1 -1.2,0.4 -1.7,-0.1 -1.2,0.1 h -0.5 -0.9 l -0.7,-0.1 -0.6,0.1 -0.8,-0.1 h -2 l -0.2,-0.1 h -1.6 l -0.6,-0.1 -0.6,0.5 0.1,0.5 0.4,1 0.1,1 -0.2,2.2 -0.3,0.7 v 1.6 l 0.3,0.5 0.7,0.2 1.6,-0.4 1.4,0.1 h 1.7 l 1.4,-0.2 0.8,0.1 h 0.8 l 0.8,-0.1 1.2,0.5 0.5,0.4 v 0.8 l 0.1,0.4 -0.2,0.6 -0.3,0.3 -1.6,0.3 -0.9,-0.1 -1,-0.2 -1.2,0.4 -1.4,-0.1 -0.4,0.2 h -1.6 l -1.2,-0.4 -1.2,-0.2 -0.4,0.2 -0.1,0.4 v 0.7 l 0.4,0.8 v 1.8 l -0.1,1.2 v 1.3 l -0.3,0.5 0.2,1.1 -0.3,0.5 0.7,0.4 0.6,-0.1 1.2,-0.4 1.7,0.2 2,-0.4 1.6,0.4 h 0.6 l 1.4,0.2 1.3,-0.3 1.2,0.1 0.7,0.8 0.1,0.6 z"
   id="path12" /><path
   d="m 336.11318,473.90898 -0.3,0.5 0.4,0.8 -0.3,1.2 v 1.2 l 0.3,0.7 v 0.9 l -0.4,1.1 0.4,1.4 -0.1,0.9 v 1.7 l -0.1,0.5 v 2.8 l -0.1,0.6 v 1.6 l 0.2,1.5 -0.4,1.2 h -0.4 l -0.9,0.5 -1.3,-0.1 -0.7,-0.7 v -0.9 l -0.1,-0.6 v -1.3 l 0.1,-0.5 -0.3,-0.8 0.2,-1.7 -0.1,-0.2 -0.1,-1.2 0.1,-1.1 0.3,-0.6 v -0.8 l -0.3,-1 0.2,-1.5 -0.1,-1.5 0.2,-0.3 -0.1,-1.2 -0.1,-0.3 v -1 l 0.2,-1.2 -0.3,-1.2 0.6,-1.9 -0.2,-0.4 -0.4,-0.3 -0.7,0.1 -0.6,0.2 h -1.3 l -1.2,0.2 -1.4,-0.3 -1.3,0.1 -1,-0.1 -0.7,-0.2 -0.1,-0.8 0.1,-0.4 v -1 l 0.3,-0.7 1.1,-0.2 1.4,0.2 0.4,-0.2 1.1,0.1 0.7,0.2 1.2,-0.1 1,-0.3 2.6,0.2 1.4,-0.1 1,0.2 0.4,0.2 1.4,-0.2 h 0.9 l 1.6,-0.3 1.2,0.2 h 1.7 l 0.6,0.3 0.3,0.4 0.4,0.9 -0.1,1.3 -0.4,0.3 -2,0.1 -1.2,-0.2 -0.8,0.2 -0.6,-0.1 -0.6,0.2 -1.3,-0.2 -1.1,-0.4 -0.4,0.1 -0.3,0.4 0.3,0.7 0.2,0.9 z"
   id="path13" /><path
   d="m 366.61318,489.10898 0.3,-1.1 v -1.1 l 0.2,-1.9 -0.1,-0.3 0.4,-1.4 -0.1,-0.3 0.1,-1.4 v -0.6 l 0.6,-0.8 -0.1,-1.6 h -0.1 l 0.4,-2.4 -0.2,-0.6 0.5,-1 v -0.8 l -0.1,-0.4 0.2,-1.2 0.4,-1.2 v -1.8 l 0.4,-0.7 0.1,-0.4 1.3,-0.1 h 0.6 l 0.7,0.3 0.4,0.6 -0.2,1.9 -0.2,0.4 v 1.9 l -0.3,0.9 0.2,0.9 -0.4,1.3 0.1,0.4 -0.4,1.2 -0.1,1.4 0.1,1.4 -0.4,0.8 0.1,0.4 -0.4,0.9 v 1 l -0.2,1.8 v 0.1 l -0.4,1.6 0.1,0.9 -0.2,2 -0.4,1.6 -0.5,0.8 -0.5,0.1 -1.1,0.5 -1.5,-0.3 -1.1,-0.6 -0.7,-1.5 -0.4,-2 h -0.1 l -0.4,-1.7 -0.5,-1.5 -0.3,-0.6 -0.2,-0.9 0.2,-0.6 -0.6,-1.2 -0.1,-0.8 -0.7,0.4 v 0.5 l -0.2,0.7 -0.7,1.6 -0.1,1.3 -0.3,0.3 -0.1,1.1 -0.4,0.8 -0.4,1.3 -0.6,1.7 -0.5,1 -2.1,0.8 -0.6,0.1 -0.9,-0.3 -0.7,-0.5 -0.4,-0.5 v -1 l -0.3,-1.1 v -0.5 -1 l -0.5,-1.7 v -0.8 l -0.1,-1.9 -0.3,-0.8 -0.1,-1.3 -0.1,-0.7 0.1,-0.7 -0.4,-1.3 -0.3,-1.6 v -1.8 l -0.2,-0.7 -0.1,-1.2 0.1,-0.8 -0.4,-0.8 0.1,-0.6 -0.3,-0.8 0.4,-0.6 -0.1,-1.7 0.5,-0.4 0.8,-0.1 0.3,-0.1 h 0.7 l 0.7,0.3 0.4,1.6 -0.1,0.6 0.3,1.6 v 0 l 0.4,0.8 -0.1,1.4 0.1,0.6 0.1,2 0.1,0.9 0.2,0.5 0.2,1.2 -0.1,0.9 0.2,1.6 0.3,0.4 -0.4,1.2 0.6,1.5 -0.1,0.9 0.1,0.1 v 1.4 l 0.1,0.4 -0.1,1.2 0.5,0.2 0.4,-1.7 0.4,-1.2 0.6,-1.4 v -0.5 l 0.4,-0.9 0.4,-1.2 0.4,-0.8 v -1.1 l 0.2,-0.4 -0.3,-0.7 1,-1.6 v -0.6 l 1.1,-0.5 h 1.4 l 0.8,0.3 1,1.4 0.1,0.8 0.5,1.8 0.4,1.7 v 0.4 l 0.4,1 -0.1,0.2 0.6,2.1 0.4,1.1 0.1,0.9 0.3,0.9 h -0.1 z"
   id="path14" /><path
   d="m 388.31318,467.50898 0.8,-0.1 0.4,0.1 1.7,0.3 1.7,0.8 0.6,0.4 0.2,0.4 1.5,1.4 0.5,0.8 0.8,1.9 v 0.3 l 0.8,1.3 0.3,1.5 -0.1,1 v 0.9 l 0.2,0.6 -0.2,1.4 0.3,1 -0.1,0.7 -0.4,1.1 0.2,2.1 -0.9,1.8 -0.4,1.4 -0.4,0.7 -0.6,0.7 -0.4,0.9 -0.6,0.4 -1.7,1.3 -0.6,0.1 -0.4,0.3 -1.1,0.3 -0.5,0.2 -0.5,-0.1 -2.1,0.1 -1.5,-0.2 -0.8,-0.3 -0.8,-0.1 -0.2,0.1 -1.7,-1.1 -0.7,-0.2 -0.6,-0.9 -0.3,-0.1 -0.6,-1 -0.8,-1.3 -0.5,-2.1 -0.4,-1.2 -0.2,-1.5 -0.3,-1.6 0.4,-1.4 -0.2,-0.8 -0.1,-1.2 0.2,-1 0.3,-0.6 v -1.6 l 0.8,-1.5 0.3,-1.2 0.3,-0.8 0.4,-0.5 0.8,-1.4 0.4,-0.1 1.1,-1 h 0.3 l 1.6,-1.1 0.8,-0.2 1,-0.1 1.7,-0.1 z"
   id="path15" /><path
   d="m 410.31318,486.50898 v 2.7 l 0.3,0.8 -0.4,1.7 v 0.2 l -0.1,0.9 -1.5,0.3 -0.7,-0.1 -1.3,-0.8 0.2,-1.2 -0.2,-1.2 -0.1,-0.2 0.3,-0.9 -0.1,-1.4 -0.2,-0.5 -0.1,-0.8 0.4,-0.8 -0.3,-2.2 h 0.2 l -0.2,-1.7 v -2.3 l -0.3,-0.8 0.3,-1.1 v -1.8 l -0.1,-0.5 -0.1,-0.9 0.1,-0.9 0.3,-0.8 -0.2,-1.4 -0.1,-0.3 0.4,-1.3 0.6,-0.8 0.7,-0.2 1.1,-0.2 h 1.8 l 0.3,0.1 1.2,-0.1 0.4,-0.1 1.7,0.4 h 1.5 l 1.2,0.5 1.4,0.1 1.6,0.8 1.1,0.9 0.5,0.2 1,1.1 0.3,0.7 0.1,0.7 0.2,0.5 v 0.6 l 0.6,0.8 -0.4,1.6 0.2,0.7 -0.7,1.3 -0.5,1.2 -0.7,0.6 -0.5,0.8 -0.6,0.1 -1.2,0.8 -1.3,0.5 -1.1,0.1 v 0.5 l 0.6,0.4 1.2,1.4 1.2,1.5 0.3,0.7 0.5,0.5 0.5,0.8 0.8,0.8 0.4,0.7 1.4,1.4 0.3,0.8 -0.1,0.6 -1.4,0.3 -1.2,-0.2 -1.1,-0.2 -1.6,-1.3 -0.4,-0.8 -1,-1.1 -1.2,-2.1 -0.4,-0.3 -0.5,-0.9 -0.5,-0.7 -0.2,-0.1 -0.8,-1.2 0.1,-0.6 -0.6,-0.3 -0.5,0.3 -0.7,0.1 -2,-0.4 -0.4,0.4 0.4,0.8 0.2,0.8 z"
   id="path16" /><path
   d="m 437.01318,487.10898 0.1,0.7 0.2,0.6 -0.3,1 0.4,0.6 -0.3,1.7 -0.9,1.3 -1.2,0.1 -0.8,-0.1 -0.4,-0.3 -0.3,-1.4 v -2.6 l -0.1,-0.8 0.4,-0.8 -0.3,-1.3 0.2,-0.4 -0.3,-1.3 v -2.2 l 0.2,-0.4 -0.1,-1.5 v -1.9 l -0.2,-0.8 0.1,-1.1 v -0.7 l 0.4,-2.4 -0.2,-0.8 0.3,-0.6 -0.3,-2.5 0.4,-0.7 0.2,-0.2 1.8,-0.3 0.3,0.4 0.9,0.7 0.2,0.5 -0.1,1.2 0.2,0.7 -0.3,1.1 0.4,0.8 -0.2,1.3 -0.1,1.4 -0.2,0.7 0.2,1.1 -0.1,1.2 0.4,0.7 0.8,-1.1 0.6,-0.5 0.6,-1.1 0.9,-0.7 0.6,-0.7 v -0.4 l 1.2,-0.9 0.3,-0.4 1.1,-1.2 1.6,-1.8 0.7,-0.5 0.2,-0.8 1,-0.8 0.4,-0.1 0.8,-0.5 1.4,-0.2 1.2,0.2 0.2,0.7 -0.5,0.6 -0.4,0.8 -0.4,0.3 -0.8,0.8 -0.4,0.3 -1,1.1 -0.7,1 -0.9,0.8 -0.6,0.9 -0.4,0.5 -0.3,0.6 -1,0.8 -1.3,0.8 -0.1,0.5 0.5,0.2 0.9,0.9 0.9,1.1 0.8,1.2 0.4,1 0.5,0.5 0.6,1.1 0.7,0.6 0.4,0.1 0.6,1.1 0.1,0.4 0.8,1 1,1.3 0.6,0.6 0.4,1 0.2,0.2 0.5,1.2 -0.4,0.6 -1.4,0.1 -1.2,-0.1 -0.8,-0.4 -1,-1.1 -0.5,-1 -0.9,-0.9 -0.3,-0.5 -0.8,-0.8 v -0.4 l -0.9,-1.1 -0.8,-0.8 -0.9,-1.8 -0.7,-0.7 -0.8,-0.9 -0.2,-1 -0.4,-0.7 -0.6,0.1 -0.2,0.7 -1.3,1.4 -1,0.5 -0.2,0.3 -0.5,0.4 0.1,0.8 0.5,0.8 z"
   id="path17" />
</svg>
